<svg width="320" height="48" viewBox="0 0 320 48" fill="none" xmlns="http://www.w3.org/2000/svg">
    <path d="M78.154 11.283v4.224h-6.959v21.868h-5.237V15.507H59v-4.224h19.154zM94.096 37.636c-2.444 0-4.689-.573-6.734-1.72a12.884 12.884 0 0 1-4.863-4.746c-1.197-2.044-1.796-4.35-1.796-6.916 0-2.542.599-4.822 1.796-6.84 1.197-2.044 2.818-3.64 4.863-4.785 2.045-1.147 4.29-1.72 6.734-1.72 2.469 0 4.713.573 6.733 1.72a12.533 12.533 0 0 1 4.826 4.784c1.197 2.019 1.796 4.3 1.796 6.841 0 2.567-.599 4.872-1.796 6.915a12.61 12.61 0 0 1-4.826 4.748c-2.045 1.146-4.29 1.72-6.733 1.72zm0-4.672c1.57 0 2.955-.35 4.152-1.047 1.197-.723 2.132-1.744 2.806-3.065.673-1.32 1.01-2.854 1.01-4.598 0-1.744-.337-3.265-1.01-4.56-.674-1.321-1.609-2.33-2.806-3.028s-2.581-1.047-4.152-1.047c-1.572 0-2.968.349-4.19 1.047-1.197.697-2.133 1.707-2.806 3.028-.673 1.295-1.01 2.816-1.01 4.56 0 1.744.337 3.277 1.01 4.598.674 1.32 1.609 2.342 2.806 3.065 1.222.698 2.618 1.047 4.19 1.047zM148.73 11.283v26.092h-5.237V20.404l-6.996 16.97h-3.965l-7.033-16.97v16.97h-5.238V11.284h5.948l8.305 19.4 8.305-19.4h5.911zM166.029 37.636c-2.445 0-4.689-.573-6.734-1.72a12.884 12.884 0 0 1-4.863-4.746c-1.197-2.044-1.796-4.35-1.796-6.916 0-2.542.599-4.822 1.796-6.84 1.197-2.044 2.818-3.64 4.863-4.785 2.045-1.147 4.289-1.72 6.734-1.72 2.469 0 4.713.573 6.733 1.72a12.533 12.533 0 0 1 4.826 4.784c1.197 2.019 1.796 4.3 1.796 6.841 0 2.567-.599 4.872-1.796 6.915a12.61 12.61 0 0 1-4.826 4.748c-2.045 1.146-4.289 1.72-6.733 1.72zm0-4.672c1.571 0 2.955-.35 4.152-1.047 1.197-.723 2.132-1.744 2.806-3.065.673-1.32 1.01-2.854 1.01-4.598 0-1.744-.337-3.265-1.01-4.56-.674-1.321-1.609-2.33-2.806-3.028s-2.581-1.047-4.152-1.047c-1.572 0-2.968.349-4.19 1.047-1.197.697-2.133 1.707-2.806 3.028-.673 1.295-1.01 2.816-1.01 4.56 0 1.744.337 3.277 1.01 4.598.673 1.32 1.609 2.342 2.806 3.065 1.222.698 2.618 1.047 4.19 1.047zM205.614 37.375h-5.238l-11.858-17.906v17.906h-5.238v-26.13h5.238l11.858 17.943V11.246h5.238v26.129zM228.97 19.133c-.598-1.097-1.421-1.931-2.469-2.505-1.047-.573-2.269-.86-3.666-.86-1.546 0-2.918.35-4.115 1.047-1.197.698-2.132 1.695-2.806 2.99-.673 1.297-1.01 2.792-1.01 4.486 0 1.745.337 3.265 1.01 4.56.699 1.297 1.659 2.294 2.881 2.991 1.222.698 2.644 1.047 4.265 1.047 1.995 0 3.628-.523 4.9-1.57 1.272-1.072 2.108-2.554 2.507-4.448h-8.979v-4h14.141v4.56c-.349 1.82-1.097 3.502-2.244 5.047-1.148 1.545-2.631 2.79-4.452 3.738-1.796.922-3.816 1.383-6.06 1.383-2.519 0-4.801-.56-6.846-1.682a12.688 12.688 0 0 1-4.789-4.748c-1.147-2.018-1.721-4.31-1.721-6.878 0-2.566.574-4.86 1.721-6.878 1.172-2.043 2.769-3.626 4.789-4.747 2.045-1.146 4.314-1.72 6.808-1.72 2.943 0 5.499.723 7.669 2.169 2.17 1.42 3.666 3.426 4.489 6.018h-6.023zM251.625 37.636c-2.444 0-4.689-.573-6.734-1.72a12.884 12.884 0 0 1-4.863-4.746c-1.197-2.044-1.796-4.35-1.796-6.916 0-2.542.599-4.822 1.796-6.84 1.197-2.044 2.818-3.64 4.863-4.785 2.045-1.147 4.29-1.72 6.734-1.72 2.469 0 4.713.573 6.733 1.72a12.533 12.533 0 0 1 4.826 4.784c1.197 2.019 1.796 4.3 1.796 6.841 0 2.567-.599 4.872-1.796 6.915a12.61 12.61 0 0 1-4.826 4.748c-2.045 1.146-4.289 1.72-6.733 1.72zm0-4.672c1.571 0 2.955-.35 4.152-1.047 1.197-.723 2.133-1.744 2.806-3.065.673-1.32 1.01-2.854 1.01-4.598 0-1.744-.337-3.265-1.01-4.56-.673-1.321-1.609-2.33-2.806-3.028s-2.581-1.047-4.152-1.047c-1.571 0-2.968.349-4.19 1.047-1.197.697-2.132 1.707-2.806 3.028-.673 1.295-1.01 2.816-1.01 4.56 0 1.744.337 3.277 1.01 4.598.674 1.32 1.609 2.342 2.806 3.065 1.222.698 2.619 1.047 4.19 1.047zM274.114 33.225h8.604v4.15h-13.842V11.283h5.238v21.942zM291.284 11.283v26.092h-5.237V11.283h5.237zM312.47 32.403h-10.4l-1.721 4.972h-5.499l9.39-26.13h6.097l9.39 26.13h-5.536l-1.721-4.972zm-1.422-4.187-3.778-10.915-3.778 10.915h7.556zM41.795 13.55c3.945 7.05 3.022 16.311-2.247 22.51-3.345 3.963-7.59 6.491-12.808 7.366-5.293.875-10.336.146-14.855-2.868-3.246-2.164-5.418-5.154-6.891-8.655-.6-1.41-1.049-2.892-1.573-4.327.05-.024.075-.024.125-.048.574.948 1.173 1.896 1.748 2.844.05-.024.074-.024.124-.049-1.023-2.747-1.672-5.567-1.498-8.508.175-2.966 1.124-5.664 2.747-8.314.05.51.1.9.174 1.434.15-.389.275-.656.375-.924 1.723-4.083 4.869-6.685 9.013-8.192 1.598-.583 3.246-.997 4.869-1.483.025.049.025.098.05.146-.4.146-.8.292-1.174.438-5.667 2.43-9.088 6.66-10.111 12.592-.6 3.355.024 6.564 2.172 9.36.674.874 1.473 1.628 2.446 2.212-1.323-1.97-2.222-4.084-2.446-6.443a10.059 10.059 0 0 0 1.922 3.307c1.298 1.507 2.871 2.698 4.544 3.816 2.172 1.459 4.394 2.844 6.566 4.327 1.399.948 2.672 2.067 3.696 3.452-.1-.219-.175-.437-.275-.656-.849-1.775-2.122-3.233-3.57-4.546-1.623-1.507-3.296-2.942-4.944-4.424-1.048-.949-1.997-1.97-2.621-3.258-.45-.972-.525-1.969-.15-2.966.075-.194.05-.413.05-.632-.05-1.094.35-1.969 1.298-2.576-.424.559-.799 1.142-.824 1.871-.075 1.848.8 3.21 2.447 4.06.674.34 1.473.51 2.222.68.799.17 1.548.39 2.147.973 1.274 1.24 2.772 2.188 4.195 3.209.749.535 1.323 1.167 1.573 2.09.35 1.216 1.248 1.897 2.546 2.043 2.347.267 4.944-1.337 5.593-3.501.35-1.118.2-2.212-.275-3.258-1.323-2.892-2.671-5.76-4.02-8.654-.649-1.361-1.248-2.747-1.522-4.254-.2-1.167-.874-2.14-1.598-3.063-1.149-1.483-2.247-2.99-3.396-4.497-.175-.219-.175-.39-.025-.608.8-1.288 1.573-2.601 2.347-3.89.15-.267.275-.534.35-.826.174-.632-.15-.972-.8-.826a8.862 8.862 0 0 0-1.547.51c-1.623.802-3.221 1.629-4.794 2.48-.55.291-1.123.267-1.673.316-4.768.413-9.063 1.969-12.808 4.886C3.97 11.92 1.074 16.66.25 22.52-.774 29.74 1.35 36.06 6.542 41.31c3.645 3.695 8.14 5.859 13.382 6.49 6.367.779 12.16-.728 17.203-4.618 4.743-3.646 7.59-8.435 8.439-14.27.873-5.956-.525-11.4-4.12-16.287-.05-.073-.1-.122-.175-.195-.025 0-.05.025-.05.025.175.364.375.729.575 1.094zM7.74 27.528c1.423 3.622 4.32 5.81 7.815 7.536-.949-.803-1.873-1.508-2.696-2.285-2.472-2.383-4.245-5.178-4.944-8.533a12.543 12.543 0 0 1 .15-5.932c.025-.097.05-.17.075-.267 0-.024-.025-.049-.05-.146-1.249 3.209-1.623 6.393-.35 9.627z" fill="#F9FAFB"/>
    <path d="M41.171 12.456c.2.364.4.729.624 1.094 3.945 7.05 3.022 16.311-2.247 22.51-3.345 3.963-7.59 6.491-12.808 7.366-5.293.875-10.336.146-14.855-2.868-3.246-2.164-5.418-5.154-6.891-8.655-.6-1.41-1.049-2.892-1.573-4.327.05-.024.075-.024.125-.048.574.948 1.173 1.896 1.748 2.844.05-.024.074-.024.124-.049-1.023-2.747-1.672-5.567-1.498-8.508.175-2.966 1.124-5.664 2.747-8.314.05.51.1.9.174 1.434.15-.389.275-.656.375-.924 1.723-4.083 4.869-6.685 9.013-8.192 1.598-.583 3.246-.997 4.869-1.483.025.049.025.098.05.146-.4.146-.8.292-1.174.438-5.667 2.43-9.088 6.66-10.111 12.592-.6 3.355.024 6.564 2.172 9.36.674.874 1.473 1.628 2.446 2.212-1.323-1.97-2.222-4.084-2.446-6.443a10.059 10.059 0 0 0 1.922 3.307c1.298 1.507 2.871 2.698 4.544 3.816 2.172 1.459 4.394 2.844 6.566 4.327 1.399.948 2.672 2.067 3.696 3.452-.1-.219-.175-.437-.275-.656-.849-1.775-2.122-3.233-3.57-4.546-1.623-1.507-3.296-2.942-4.944-4.424-1.048-.949-1.997-1.97-2.621-3.258-.45-.972-.525-1.969-.15-2.966.075-.194.05-.413.05-.632-.05-1.094.35-1.969 1.298-2.576-.424.559-.799 1.142-.824 1.871-.075 1.848.8 3.21 2.447 4.06.674.34 1.473.51 2.222.68.799.17 1.548.39 2.147.973 1.274 1.24 2.772 2.188 4.195 3.209.749.535 1.323 1.167 1.573 2.09.35 1.216 1.248 1.897 2.546 2.043 2.347.267 4.944-1.337 5.593-3.501.35-1.118.2-2.212-.275-3.258-1.323-2.892-2.671-5.76-4.02-8.654-.649-1.361-1.248-2.747-1.522-4.254-.2-1.167-.874-2.14-1.598-3.063-1.149-1.483-2.247-2.99-3.396-4.497-.175-.219-.175-.39-.025-.608.8-1.288 1.573-2.601 2.347-3.89.15-.267.275-.534.35-.826.174-.632-.15-.972-.8-.826a8.862 8.862 0 0 0-1.547.51c-1.623.802-3.221 1.629-4.794 2.48-.55.291-1.123.267-1.673.316-4.768.413-9.063 1.969-12.808 4.886C3.97 11.92 1.074 16.66.25 22.52-.774 29.74 1.35 36.06 6.542 41.31c3.645 3.695 8.14 5.859 13.382 6.49 6.367.779 12.16-.728 17.203-4.618 4.743-3.646 7.59-8.435 8.439-14.27.873-5.956-.525-11.4-4.12-16.287-.05-.073-.1-.122-.175-.195-.05 0-.075.025-.1.025z" fill="#F9FAFB"/>
    <path d="M8.065 17.901c-1.223 3.209-1.598 6.418-.325 9.627 1.423 3.622 4.32 5.81 7.815 7.536-.949-.803-1.873-1.508-2.696-2.285-2.472-2.383-4.245-5.178-4.944-8.533a12.543 12.543 0 0 1 .15-5.932c.025-.097.05-.17.075-.267-.025-.024-.025-.049-.075-.146z" fill="#F9FAFB"/>
</svg>
