<svg width="214" height="32" viewBox="0 0 214 32" fill="none" xmlns="http://www.w3.org/2000/svg">
    <path d="M40 11.745V9.2h12.263v2.545h-4.571V23.8h-3.12V11.745H40zM55.104 23.8V9.2h5.891c1.128 0 2.09.197 2.888.591.802.39 1.412.944 1.83 1.662.422.712.634 1.551.634 2.516 0 .97-.214 1.804-.642 2.502-.427.694-1.047 1.227-1.859 1.597-.807.371-1.784.556-2.93.556H56.97v-2.48h3.434c.602 0 1.103-.081 1.502-.243.398-.162.695-.404.89-.727.199-.323.298-.725.298-1.205 0-.485-.1-.893-.299-1.226-.194-.333-.493-.585-.897-.756-.398-.176-.901-.264-1.509-.264h-2.129V23.8h-3.157zm8.064-6.644 3.711 6.644h-3.485l-3.63-6.644h3.404zM72.556 9.2v14.6H69.4V9.2h3.157zM75.975 23.8V9.2h5.89c1.133 0 2.098.211 2.895.634.798.418 1.405 1 1.823 1.747.423.741.635 1.597.635 2.566 0 .97-.214 1.825-.642 2.567-.428.741-1.048 1.319-1.86 1.732-.806.414-1.783.62-2.93.62H78.03v-2.473h3.244c.608 0 1.109-.102 1.502-.307.399-.209.695-.497.89-.863.2-.37.299-.796.299-1.276 0-.485-.1-.908-.3-1.269a1.977 1.977 0 0 0-.889-.848c-.398-.204-.904-.307-1.516-.307h-2.13V23.8h-3.156zM95.662 9.2h3.894l4.112 9.81h.175l4.112-9.81h3.893v14.6h-3.062v-9.503h-.124l-3.864 9.432h-2.085l-3.864-9.468h-.124v9.54h-3.063V9.2zM128.992 16.5c0 1.592-.308 2.947-.926 4.064-.612 1.117-1.448 1.97-2.508 2.56-1.055.584-2.241.876-3.558.876-1.327 0-2.518-.295-3.572-.884-1.055-.59-1.889-1.442-2.501-2.56-.613-1.116-.919-2.469-.919-4.056 0-1.592.306-2.947.919-4.064.612-1.117 1.446-1.967 2.501-2.552C119.482 9.294 120.673 9 122 9c1.317 0 2.503.295 3.558.884 1.06.585 1.896 1.435 2.508 2.552.618 1.117.926 2.472.926 4.064zm-3.2 0c0-1.031-.158-1.901-.474-2.61-.311-.708-.751-1.245-1.32-1.61-.569-.366-1.235-.55-1.998-.55-.763 0-1.429.184-1.998.55-.568.365-1.011.902-1.326 1.61-.312.709-.467 1.579-.467 2.61s.155 1.901.467 2.61c.315.707.758 1.245 1.326 1.61.569.367 1.235.55 1.998.55.763 0 1.429-.183 1.998-.55.569-.365 1.009-.902 1.32-1.61.316-.709.474-1.579.474-2.61zM144.641 9.2v14.6h-2.726l-6.497-9.19h-.109v9.19h-3.157V9.2h2.771l6.445 9.182h.131V9.2h3.142zM157.972 13.92a3.158 3.158 0 0 0-.43-.92 2.634 2.634 0 0 0-.678-.685 2.943 2.943 0 0 0-.904-.435c-.336-.1-.707-.15-1.116-.15-.763 0-1.434.186-2.012.557-.573.37-1.021.91-1.341 1.618-.321.703-.482 1.564-.482 2.58 0 1.018.158 1.883.474 2.596.316.713.763 1.257 1.342 1.632.578.371 1.261.556 2.049.556.714 0 1.324-.123 1.83-.37.51-.252.899-.606 1.166-1.063.272-.456.408-.995.408-1.618l.642.093h-3.85v-2.324h6.249v1.839c0 1.283-.277 2.386-.831 3.308a5.622 5.622 0 0 1-2.29 2.125c-.972.494-2.085.741-3.339.741-1.4 0-2.63-.302-3.689-.905-1.06-.609-1.886-1.471-2.479-2.588-.588-1.122-.882-2.453-.882-3.993 0-1.183.175-2.238.525-3.165.354-.932.85-1.72 1.487-2.367a6.438 6.438 0 0 1 2.224-1.476A7.346 7.346 0 0 1 154.793 9c.846 0 1.634.121 2.363.364a6.34 6.34 0 0 1 1.939 1.012 5.521 5.521 0 0 1 1.393 1.561c.359.6.59 1.26.692 1.982h-3.208zM178.233 16.5c0 1.592-.309 2.947-.926 4.064-.612 1.117-1.448 1.97-2.508 2.56-1.055.584-2.241.876-3.558.876-1.327 0-2.518-.295-3.573-.884-1.054-.59-1.888-1.442-2.5-2.56-.613-1.116-.919-2.469-.919-4.056 0-1.592.306-2.947.919-4.064.612-1.117 1.446-1.967 2.5-2.552 1.055-.59 2.246-.884 3.573-.884 1.317 0 2.503.295 3.558.884 1.06.585 1.896 1.435 2.508 2.552.617 1.117.926 2.472.926 4.064zm-3.201 0c0-1.031-.158-1.901-.474-2.61-.311-.708-.751-1.245-1.319-1.61-.569-.366-1.235-.55-1.998-.55-.763 0-1.429.184-1.998.55-.569.365-1.011.902-1.327 1.61-.311.709-.466 1.579-.466 2.61s.155 1.901.466 2.61c.316.707.758 1.245 1.327 1.61.569.367 1.235.55 1.998.55.763 0 1.429-.183 1.998-.55.568-.365 1.008-.902 1.319-1.61.316-.709.474-1.579.474-2.61zM181.393 23.8V9.2h3.157v12.055h6.401V23.8h-9.558zM197.02 9.2v14.6h-3.157V9.2h3.157zM203.012 23.8h-3.382l5.154-14.6h4.069L214 23.8h-3.383l-3.74-11.264h-.117L203.012 23.8zm-.211-5.739h7.991v2.41h-7.991v-2.41z" fill="#101828"/>
    <path d="M28.778 9.033c2.67 4.7 2.044 10.875-1.52 15.007-2.264 2.642-5.135 4.327-8.666 4.91-3.581.584-6.993.098-10.05-1.912-2.197-1.442-3.667-3.435-4.663-5.77-.406-.939-.71-1.928-1.064-2.884.033-.016.05-.016.084-.032.389.632.794 1.264 1.183 1.896.033-.016.05-.016.084-.033-.693-1.83-1.132-3.71-1.014-5.672.119-1.977.76-3.776 1.859-5.542.033.34.067.6.118.956.101-.26.186-.438.253-.616 1.166-2.723 3.294-4.457 6.098-5.462 1.082-.388 2.197-.664 3.294-.988.017.032.017.065.034.097-.27.097-.54.195-.794.292-3.834 1.62-6.149 4.44-6.841 8.395-.406 2.236.017 4.375 1.47 6.24a5.904 5.904 0 0 0 1.655 1.474c-.895-1.313-1.503-2.723-1.656-4.295.288.81.727 1.556 1.301 2.204.879 1.005 1.943 1.8 3.075 2.545 1.47.972 2.973 1.896 4.442 2.884.946.633 1.808 1.378 2.5 2.302-.067-.146-.118-.292-.185-.438-.575-1.183-1.436-2.155-2.416-3.03-1.098-1.005-2.23-1.961-3.345-2.95-.71-.632-1.351-1.313-1.773-2.172-.304-.648-.355-1.312-.102-1.977.05-.13.034-.275.034-.421-.034-.73.236-1.313.878-1.718-.287.373-.54.762-.557 1.248-.05 1.232.54 2.14 1.655 2.706.457.227.997.34 1.504.454.54.114 1.047.26 1.453.648.861.827 1.875 1.459 2.838 2.14.506.356.895.778 1.064 1.393.236.81.844 1.265 1.723 1.362 1.588.178 3.345-.892 3.784-2.334.236-.745.135-1.475-.186-2.172-.895-1.928-1.808-3.84-2.72-5.77-.439-.907-.844-1.83-1.03-2.835-.135-.778-.591-1.426-1.081-2.042-.777-.989-1.52-1.994-2.298-2.998-.118-.146-.118-.26-.017-.406.541-.859 1.065-1.734 1.588-2.593.102-.178.186-.356.237-.55.118-.422-.102-.649-.54-.552a6.06 6.06 0 0 0-1.048.34 99.999 99.999 0 0 0-3.244 1.654c-.371.194-.76.178-1.131.21-3.227.276-6.132 1.313-8.666 3.258-3.193 2.463-5.152 5.623-5.71 9.53-.692 4.813.744 9.026 4.257 12.527 2.466 2.463 5.507 3.905 9.054 4.327 4.308.518 8.227-.486 11.64-3.08 3.209-2.43 5.135-5.623 5.71-9.512.59-3.971-.356-7.601-2.788-10.859a.822.822 0 0 0-.118-.13c-.017 0-.034.017-.034.017.118.243.253.486.388.73zM5.737 18.352c.963 2.415 2.922 3.873 5.287 5.024-.642-.535-1.267-1.005-1.824-1.524-1.672-1.588-2.872-3.452-3.345-5.688a8.243 8.243 0 0 1 .102-3.955c.016-.064.033-.113.05-.178 0-.016-.017-.032-.034-.097-.844 2.14-1.098 4.262-.236 6.418z" fill="#06AED4"/>
    <path d="M28.356 8.304c.135.243.27.486.422.73 2.67 4.699 2.044 10.874-1.52 15.006-2.264 2.642-5.135 4.327-8.666 4.91-3.581.584-6.993.098-10.05-1.912-2.197-1.442-3.667-3.435-4.663-5.77-.406-.939-.71-1.928-1.064-2.884.033-.016.05-.016.084-.032.389.632.794 1.264 1.183 1.896.033-.016.05-.016.084-.033-.693-1.83-1.132-3.71-1.014-5.672.119-1.977.76-3.776 1.859-5.542.033.34.067.6.118.956.101-.26.186-.438.253-.616 1.166-2.723 3.294-4.457 6.098-5.462 1.082-.388 2.197-.664 3.294-.988.017.032.017.065.034.097-.27.097-.54.195-.794.292-3.834 1.62-6.149 4.44-6.841 8.395-.406 2.236.017 4.375 1.47 6.24a5.904 5.904 0 0 0 1.655 1.474c-.895-1.313-1.503-2.723-1.656-4.295.288.81.727 1.556 1.301 2.204.879 1.005 1.943 1.8 3.075 2.545 1.47.972 2.973 1.896 4.442 2.884.946.633 1.808 1.378 2.5 2.302-.067-.146-.118-.292-.185-.438-.575-1.183-1.436-2.155-2.416-3.03-1.098-1.005-2.23-1.961-3.345-2.95-.71-.632-1.351-1.313-1.773-2.172-.304-.648-.355-1.312-.102-1.977.05-.13.034-.275.034-.421-.034-.73.236-1.313.878-1.718-.287.373-.54.762-.557 1.248-.05 1.232.54 2.14 1.655 2.706.457.227.997.34 1.504.454.54.114 1.047.26 1.453.648.861.827 1.875 1.459 2.838 2.14.506.356.895.778 1.064 1.393.236.81.844 1.265 1.723 1.362 1.588.178 3.345-.892 3.784-2.334.236-.745.135-1.475-.186-2.172-.895-1.928-1.808-3.84-2.72-5.77-.439-.907-.844-1.83-1.03-2.835-.135-.778-.591-1.426-1.081-2.042-.777-.989-1.52-1.994-2.298-2.998-.118-.146-.118-.26-.017-.406.541-.859 1.065-1.734 1.588-2.593.102-.178.186-.356.237-.55.118-.422-.102-.649-.54-.552a6.06 6.06 0 0 0-1.048.34 99.999 99.999 0 0 0-3.244 1.654c-.371.194-.76.178-1.131.21-3.227.276-6.132 1.313-8.666 3.258-3.193 2.463-5.152 5.623-5.71 9.53-.692 4.813.744 9.026 4.257 12.527 2.466 2.463 5.507 3.905 9.054 4.327 4.308.518 8.227-.486 11.64-3.08 3.209-2.43 5.135-5.623 5.71-9.512.59-3.971-.356-7.601-2.788-10.859a.822.822 0 0 0-.118-.13c-.034 0-.051.017-.068.017z" fill="#06AED4"/>
    <path d="M5.957 11.934c-.828 2.14-1.082 4.278-.22 6.418.963 2.415 2.922 3.873 5.287 5.024-.642-.535-1.267-1.005-1.824-1.524-1.672-1.588-2.872-3.452-3.345-5.688a8.243 8.243 0 0 1 .102-3.955c.016-.064.033-.113.05-.178-.017-.016-.016-.032-.05-.097z" fill="#06AED4"/>
</svg>
