<svg width="214" height="32" viewBox="0 0 214 32" fill="none" xmlns="http://www.w3.org/2000/svg">
    <path d="M52.77 7.522v2.816h-4.64v14.578H44.64V10.338H40V7.522h12.77zM63.397 25.09c-1.63 0-3.126-.381-4.489-1.145a8.59 8.59 0 0 1-3.242-3.165c-.798-1.363-1.197-2.9-1.197-4.61 0-1.695.399-3.215 1.197-4.561a8.535 8.535 0 0 1 3.242-3.19c1.363-.764 2.86-1.146 4.49-1.146 1.645 0 3.142.382 4.488 1.146a8.356 8.356 0 0 1 3.218 3.19c.797 1.346 1.197 2.866 1.197 4.56 0 1.712-.4 3.248-1.198 4.61a8.407 8.407 0 0 1-3.217 3.166c-1.363.764-2.86 1.146-4.489 1.146zm0-3.114c1.048 0 1.97-.233 2.768-.698.798-.482 1.422-1.163 1.87-2.043.45-.881.674-1.903.674-3.066 0-1.163-.224-2.176-.673-3.04-.449-.88-1.073-1.553-1.87-2.018-.799-.466-1.721-.698-2.769-.698-1.047 0-1.978.232-2.793.697-.798.466-1.422 1.139-1.87 2.019-.45.864-.674 1.877-.674 3.04s.224 2.185.673 3.066c.45.88 1.073 1.561 1.87 2.043.816.465 1.747.698 2.794.698zM99.82 7.522v17.394h-3.492V13.602l-4.663 11.314H89.02l-4.689-11.314v11.314h-3.491V7.522h3.965l5.537 12.934 5.536-12.934h3.94zM111.352 25.09c-1.629 0-3.125-.381-4.489-1.145a8.591 8.591 0 0 1-3.242-3.165c-.798-1.363-1.197-2.9-1.197-4.61 0-1.695.399-3.215 1.197-4.561a8.537 8.537 0 0 1 3.242-3.19c1.364-.764 2.86-1.146 4.489-1.146 1.646 0 3.143.382 4.49 1.146a8.362 8.362 0 0 1 3.217 3.19c.798 1.346 1.197 2.866 1.197 4.56 0 1.712-.399 3.248-1.197 4.61a8.413 8.413 0 0 1-3.217 3.166c-1.364.764-2.86 1.146-4.49 1.146zm0-3.114c1.048 0 1.971-.233 2.769-.698.798-.482 1.421-1.163 1.87-2.043.449-.881.674-1.903.674-3.066 0-1.163-.225-2.176-.674-3.04-.449-.88-1.072-1.553-1.87-2.018-.798-.466-1.721-.698-2.769-.698-1.047 0-1.978.232-2.793.697-.798.466-1.421 1.139-1.87 2.019-.449.864-.674 1.877-.674 3.04s.225 2.185.674 3.066c.449.88 1.072 1.561 1.87 2.043.815.465 1.746.698 2.793.698zM137.742 24.916h-3.491l-7.906-11.937v11.937h-3.492V7.497h3.492l7.906 11.962V7.497h3.491v17.42zM153.314 12.755a4.088 4.088 0 0 0-1.646-1.67c-.699-.382-1.513-.573-2.445-.573-1.03 0-1.945.233-2.743.698-.798.465-1.421 1.13-1.87 1.994-.449.864-.674 1.86-.674 2.99 0 1.163.225 2.177.674 3.04.465.864 1.105 1.529 1.92 1.994.815.465 1.762.698 2.843.698 1.33 0 2.419-.349 3.267-1.047.848-.714 1.405-1.703 1.671-2.965h-5.985v-2.667h9.427v3.04a8.17 8.17 0 0 1-1.497 3.365c-.764 1.03-1.754 1.86-2.967 2.492-1.197.615-2.544.922-4.041.922-1.679 0-3.2-.374-4.564-1.121a8.466 8.466 0 0 1-3.192-3.165c-.765-1.346-1.147-2.875-1.147-4.586 0-1.711.382-3.24 1.147-4.585a8.236 8.236 0 0 1 3.192-3.165c1.364-.764 2.877-1.146 4.539-1.146 1.962 0 3.667.481 5.113 1.445 1.447.947 2.444 2.284 2.993 4.012h-4.015zM168.416 25.09c-1.629 0-3.125-.381-4.489-1.145a8.591 8.591 0 0 1-3.242-3.165c-.798-1.363-1.197-2.9-1.197-4.61 0-1.695.399-3.215 1.197-4.561a8.537 8.537 0 0 1 3.242-3.19c1.364-.764 2.86-1.146 4.489-1.146 1.647 0 3.143.382 4.49 1.146a8.362 8.362 0 0 1 3.217 3.19c.798 1.346 1.197 2.866 1.197 4.56 0 1.712-.399 3.248-1.197 4.61a8.413 8.413 0 0 1-3.217 3.166c-1.364.764-2.86 1.146-4.49 1.146zm0-3.114c1.048 0 1.971-.233 2.769-.698.798-.482 1.421-1.163 1.87-2.043.449-.881.674-1.903.674-3.066 0-1.163-.225-2.176-.674-3.04-.449-.88-1.072-1.553-1.87-2.018-.798-.466-1.721-.698-2.769-.698-1.047 0-1.978.232-2.793.697-.798.466-1.421 1.139-1.87 2.019-.449.864-.674 1.877-.674 3.04s.225 2.185.674 3.066c.449.88 1.072 1.561 1.87 2.043.815.465 1.746.698 2.793.698zM183.409 22.15h5.736v2.766h-9.227V7.522h3.491V22.15zM194.856 7.522v17.394h-3.492V7.522h3.492zM208.98 21.602h-6.933l-1.148 3.314h-3.666l6.26-17.419h4.065l6.26 17.42h-3.691l-1.147-3.315zm-.948-2.791-2.519-7.277-2.519 7.277h5.038z" fill="#1F2A37"/>
    <path d="M28.778 9.033c2.67 4.7 2.044 10.875-1.52 15.007-2.264 2.642-5.135 4.327-8.666 4.91-3.581.584-6.993.098-10.05-1.912-2.197-1.442-3.667-3.435-4.663-5.77-.406-.939-.71-1.928-1.064-2.884.033-.016.05-.016.084-.032.389.632.794 1.264 1.183 1.896.033-.016.05-.016.084-.033-.693-1.83-1.132-3.71-1.014-5.672.119-1.977.76-3.776 1.859-5.542.033.34.067.6.118.956.101-.26.186-.438.253-.616 1.166-2.723 3.294-4.457 6.098-5.462 1.082-.388 2.197-.664 3.294-.988.017.032.017.065.034.097-.27.097-.54.195-.794.292-3.834 1.62-6.149 4.44-6.841 8.395-.406 2.236.017 4.375 1.47 6.24a5.904 5.904 0 0 0 1.655 1.474c-.895-1.313-1.503-2.723-1.656-4.295.288.81.727 1.556 1.301 2.204.879 1.005 1.943 1.8 3.075 2.545 1.47.972 2.973 1.896 4.442 2.884.946.633 1.808 1.378 2.5 2.302-.067-.146-.118-.292-.185-.438-.575-1.183-1.436-2.155-2.416-3.03-1.098-1.005-2.23-1.961-3.345-2.95-.71-.632-1.351-1.313-1.773-2.172-.304-.648-.355-1.312-.102-1.977.05-.13.034-.275.034-.421-.034-.73.236-1.313.878-1.718-.287.373-.54.762-.557 1.248-.05 1.232.54 2.14 1.655 2.706.457.227.997.34 1.504.454.54.114 1.047.26 1.453.648.861.827 1.875 1.459 2.838 2.14.506.356.895.778 1.064 1.393.236.81.844 1.265 1.723 1.362 1.588.178 3.345-.892 3.784-2.334.236-.745.135-1.475-.186-2.172-.895-1.928-1.808-3.84-2.72-5.77-.439-.907-.844-1.83-1.03-2.835-.135-.778-.591-1.426-1.081-2.042-.777-.989-1.52-1.994-2.298-2.998-.118-.146-.118-.26-.017-.406.541-.859 1.065-1.734 1.588-2.593.102-.178.186-.356.237-.55.118-.422-.102-.649-.54-.552a6.06 6.06 0 0 0-1.048.34 99.999 99.999 0 0 0-3.244 1.654c-.371.194-.76.178-1.131.21-3.227.276-6.132 1.313-8.666 3.258-3.193 2.463-5.152 5.623-5.71 9.53-.692 4.813.744 9.026 4.257 12.527 2.466 2.463 5.507 3.905 9.054 4.327 4.308.518 8.227-.486 11.64-3.08 3.209-2.43 5.135-5.623 5.71-9.512.59-3.971-.356-7.601-2.788-10.859a.822.822 0 0 0-.118-.13c-.017 0-.034.017-.034.017.118.243.253.486.388.73zM5.737 18.352c.963 2.415 2.922 3.873 5.287 5.024-.642-.535-1.267-1.005-1.824-1.524-1.672-1.588-2.872-3.452-3.345-5.688a8.243 8.243 0 0 1 .102-3.955c.016-.064.033-.113.05-.178 0-.016-.017-.032-.034-.097-.844 2.14-1.098 4.262-.236 6.418z" fill="#2563EA"/>
    <path d="M28.356 8.304c.135.243.27.486.422.73 2.67 4.699 2.044 10.874-1.52 15.006-2.264 2.642-5.135 4.327-8.666 4.91-3.581.584-6.993.098-10.05-1.912-2.197-1.442-3.667-3.435-4.663-5.77-.406-.939-.71-1.928-1.064-2.884.033-.016.05-.016.084-.032.389.632.794 1.264 1.183 1.896.033-.016.05-.016.084-.033-.693-1.83-1.132-3.71-1.014-5.672.119-1.977.76-3.776 1.859-5.542.033.34.067.6.118.956.101-.26.186-.438.253-.616 1.166-2.723 3.294-4.457 6.098-5.462 1.082-.388 2.197-.664 3.294-.988.017.032.017.065.034.097-.27.097-.54.195-.794.292-3.834 1.62-6.149 4.44-6.841 8.395-.406 2.236.017 4.375 1.47 6.24a5.904 5.904 0 0 0 1.655 1.474c-.895-1.313-1.503-2.723-1.656-4.295.288.81.727 1.556 1.301 2.204.879 1.005 1.943 1.8 3.075 2.545 1.47.972 2.973 1.896 4.442 2.884.946.633 1.808 1.378 2.5 2.302-.067-.146-.118-.292-.185-.438-.575-1.183-1.436-2.155-2.416-3.03-1.098-1.005-2.23-1.961-3.345-2.95-.71-.632-1.351-1.313-1.773-2.172-.304-.648-.355-1.312-.102-1.977.05-.13.034-.275.034-.421-.034-.73.236-1.313.878-1.718-.287.373-.54.762-.557 1.248-.05 1.232.54 2.14 1.655 2.706.457.227.997.34 1.504.454.54.114 1.047.26 1.453.648.861.827 1.875 1.459 2.838 2.14.506.356.895.778 1.064 1.393.236.81.844 1.265 1.723 1.362 1.588.178 3.345-.892 3.784-2.334.236-.745.135-1.475-.186-2.172-.895-1.928-1.808-3.84-2.72-5.77-.439-.907-.844-1.83-1.03-2.835-.135-.778-.591-1.426-1.081-2.042-.777-.989-1.52-1.994-2.298-2.998-.118-.146-.118-.26-.017-.406.541-.859 1.065-1.734 1.588-2.593.102-.178.186-.356.237-.55.118-.422-.102-.649-.54-.552a6.06 6.06 0 0 0-1.048.34 99.999 99.999 0 0 0-3.244 1.654c-.371.194-.76.178-1.131.21-3.227.276-6.132 1.313-8.666 3.258-3.193 2.463-5.152 5.623-5.71 9.53-.692 4.813.744 9.026 4.257 12.527 2.466 2.463 5.507 3.905 9.054 4.327 4.308.518 8.227-.486 11.64-3.08 3.209-2.43 5.135-5.623 5.71-9.512.59-3.971-.356-7.601-2.788-10.859a.822.822 0 0 0-.118-.13c-.034 0-.051.017-.068.017z" fill="#2563EA"/>
    <path d="M5.957 11.934c-.828 2.14-1.082 4.278-.22 6.418.963 2.415 2.922 3.873 5.287 5.024-.642-.535-1.267-1.005-1.824-1.524-1.672-1.588-2.872-3.452-3.345-5.688a8.243 8.243 0 0 1 .102-3.955c.016-.064.033-.113.05-.178-.017-.016-.016-.032-.05-.097z" fill="#2563EA"/>
</svg>
