<svg width="56" height="56" viewBox="0 0 56 56" fill="none" xmlns="http://www.w3.org/2000/svg">
    <path d="M30.135 17.031c.05 0 .097.008.141.021a.492.492 0 0 1 .367.477v6.177l5.32-5.32a.904.904 0 0 1 .646-.266c.232 0 .466.086.646.265l1.836 1.836a.289.289 0 0 1 .04.347c-.214.338-.292.74-.248 1.125.047.372.213.74.505 1.031.287.292.651.458 1.031.505.38.047.771-.034 1.112-.232a.288.288 0 0 1 .365.034l1.836 1.836c.18.18.265.412.265.646a.909.909 0 0 1-.265.646L30.643 39.247v.91c0 .27-.221.491-.492.491h-16.74c-.388 0-.74-.158-.994-.414a1.412 1.412 0 0 1-.417-1V16.336c0-.08.018-.156.055-.224A1.506 1.506 0 0 1 13.508 15h16.627c.271 0 .493.221.493.492s-.222.492-.493.492H13.508a.531.531 0 0 0-.37.154.531.531 0 0 0-.154.37c0 .143.06.273.154.37a.52.52 0 0 0 .37.153h16.627zm.508 7.487v2.88c.07.014.151.032.245.055l.453-.453.417.417-.193.192.497.118.508-.508.42.419-.248.247.633.146 1.065-1.065c.149-.148.435-.11.633.089.198.198.24.484.088.633l-1.065 1.065.146.627.245-.245.42.42-.506.505.115.497.19-.19.419.42-.45.45.002.01c.216.948.023.651-.695 1.37l-1.042-2.703-1.031 1.031c.07.5.101.901-.292 1.295l-.44-.43c-.034-.211-.05-.362-.068-.471a.642.642 0 0 1-.307-.294l-.159-.019v4.43l1.498 1.497 8.505-8.508-6.964-6.966-3.039 3.04zm0 4.058v1.572c.17-.005.347.026.547.066l1.029-1.03-1.576-.608zm0 7.666v2.206l1.104-1.104-1.104-1.102zm10.399-8.19-6.967-6.966 2.295-2.294a.34.34 0 0 1 .247-.1c.086 0 .18.035.248.1l1.682 1.682a2.359 2.359 0 0 0-.214 1.292c.193 1.604 1.896 2.502 3.326 1.823l1.682 1.682a.34.34 0 0 1 .1.247c0 .086-.035.18-.1.248l-.008-.008-2.291 2.294zm-15.516.432c.016 0 .031 0 .044.003.1-.172.188-.354.271-.544.003-.003.003-.006.005-.01.123-.29.216-.592.276-.904.047-.242.081-.487.089-.742H24.75c-.026.742-.247 1.473-.659 2.192h1.432v.005h.003zm-.255.466h-1.469c-.445.649-1.05 1.284-1.802 1.917.117-.015.237-.034.352-.057.315-.063.62-.156.911-.284.297-.128.573-.276.833-.45.258-.172.495-.368.714-.586.17-.17.325-.347.466-.54h-.005zm-4.524 1.915c-.752-.63-1.354-1.269-1.802-1.917h-1.468a4.8 4.8 0 0 0 1.18 1.125c.255.172.53.323.833.45.002.003.005.003.01.006a4.66 4.66 0 0 0 1.255.336h-.008zm-3.578-2.38h1.48c-.412-.722-.636-1.454-.66-2.193h-1.46c.013.255.041.5.088.742.063.315.156.62.284.911.08.188.17.367.268.54zm-.64-2.66h1.468c.055-.726.297-1.458.727-2.192h-1.557a5.204 5.204 0 0 0-.269.539l-.005.01a4.835 4.835 0 0 0-.365 1.643zm.945-2.66h1.552c.443-.639 1.026-1.28 1.753-1.923a4.406 4.406 0 0 0-1.294.344 5.326 5.326 0 0 0-.834.45 4.659 4.659 0 0 0-.713.586 4.58 4.58 0 0 0-.467.54l.003.002zm4.492-1.923c.73.643 1.313 1.284 1.753 1.922h1.552a4.8 4.8 0 0 0-1.18-1.125 4.892 4.892 0 0 0-.833-.45c-.003-.003-.005-.003-.01-.006a4.66 4.66 0 0 0-1.287-.338v-.003h.005zm3.61 2.388h-1.558c.43.737.672 1.466.727 2.193h1.468a5.297 5.297 0 0 0-.088-.742 4.406 4.406 0 0 0-.284-.912 4.7 4.7 0 0 0-.265-.539zm-5.271-2.784c.343-.07.7-.104 1.067-.104.368 0 .722.034 1.068.104a4.971 4.971 0 0 1 1.005.313c.318.138.623.302.907.492a5.181 5.181 0 0 1 1.427 1.427c.19.284.354.586.492.906.14.326.242.66.312 1.006.07.343.105.7.105 1.067s-.034.722-.105 1.068a4.965 4.965 0 0 1-.312 1.005 5.518 5.518 0 0 1-.492.907 5.18 5.18 0 0 1-1.427 1.427c-.284.19-.586.354-.907.492-.325.14-.659.242-1.005.312-.344.07-.7.104-1.068.104-.367 0-.721-.034-1.067-.104a4.963 4.963 0 0 1-1.006-.312 5.738 5.738 0 0 1-.906-.492 5.18 5.18 0 0 1-1.427-1.427 5.625 5.625 0 0 1-.492-.907 5.044 5.044 0 0 1-.313-1.005c-.07-.344-.104-.7-.104-1.068 0-.367.034-.721.105-1.067a4.97 4.97 0 0 1 .312-1.006c.138-.323.302-.622.492-.906a5.03 5.03 0 0 1 .643-.784c.24-.242.5-.456.784-.643.284-.19.586-.354.906-.492.326-.14.662-.242 1.006-.313zm1.3.698v1.62h1.543a11.165 11.165 0 0 0-1.544-1.62zm0 2.086v2.193h2.674c-.06-.721-.328-1.45-.808-2.193h-1.867zm0 2.66v2.192h1.947c.464-.727.708-1.459.737-2.193h-2.685zm0 2.66v1.639c.658-.542 1.202-1.092 1.622-1.638h-1.623zm-.464 1.639V28.95h-1.623c.417.546.959 1.096 1.623 1.637zm0-2.105v-2.192h-2.685c.028.737.276 1.466.737 2.192h1.948zm0-2.659v-2.192h-1.87c-.48.742-.748 1.474-.808 2.193h2.678zm0-2.66v-1.62a10.906 10.906 0 0 0-1.545 1.62h1.545zm-3.258 14.132a.494.494 0 0 1-.492-.492c0-.271.221-.492.492-.492h6.862c.27 0 .492.22.492.492 0 .27-.221.492-.492.492h-6.862zm-2.003-2.578a.494.494 0 0 1-.492-.492c0-.271.221-.493.492-.493h10.87a.494.494 0 0 1 0 .984H15.88zM29.66 18.016H13.508c-.185 0-.362-.034-.524-.094v21.312a.425.425 0 0 0 .427.427H29.66V18.016z" fill="#344054"/>
    <rect x=".5" y=".5" width="55" height="55" rx="11.5" stroke="#EAECF0"/>
</svg>
