<svg width="56" height="56" viewBox="0 0 56 56" fill="none" xmlns="http://www.w3.org/2000/svg">
    <g clip-path="url(#m56oq07kna)" fill="#344054">
        <path d="M27.405 16.31c-.738-.265-1.417-.182-2.143.381l.938.664c.61.433 1.21.859 1.815 1.28.14.087.305.128.47.118a54.19 54.19 0 0 1 1.255-.075c1.031-.053 2.063-.107 3.065-.305 3.476-.694 6.735-2.07 9.987-3.442l.103-.043c.29-.12.559-.285.798-.488.47-.405.4-.988-.181-1.11-.107-.021-.215-.045-.325-.068-.75-.162-1.559-.336-2.218-.126-2.975.945-5.938 1.982-8.83 3.163-1.534.624-2.938 1.094-4.465.153a1.502 1.502 0 0 0-.269-.103z"/>
        <path fill-rule="evenodd" clip-rule="evenodd" d="M35.67 39.379h2.132c0-.75.005-1.493.01-2.234.013-1.802.025-3.583-.037-5.36-.038-1.008-.722-1.75-1.663-2.22a1.523 1.523 0 0 1-.688-.71c-.385-.964-.747-1.937-1.109-2.91-.244-.654-.488-1.31-.738-1.961-.564-1.464-1.409-2.043-2.973-2.067-.305-.004-.61-.002-.916 0-.518.005-1.036.008-1.552-.02a.924.924 0 0 1-.657-.376l-.167-.297c-.507-.904-.71-1.267-1.016-1.409-.206-.095-.458-.09-.88-.08-.272.005-.616.012-1.063-.006-.478-.016-.855.148-.986.565-.514 1.625-1.731 1.812-3.161 1.625a4.656 4.656 0 0 0-.654 0c-1.702.022-2.52.558-3.144 2.155-.22.567-.44 1.135-.658 1.703-.397 1.032-.794 2.064-1.206 3.089-.096.238-.296.518-.519.61-1.369.569-2.012 1.597-2.024 3.049-.008.968-.005 1.936-.002 2.904L12 36.881v2.508h2.171c-.018.378-.016.757.007 1.134l.018.16c.053.473.106.952.26 1.391a1.364 1.364 0 0 0 1.336.94 1.348 1.348 0 0 0 1.355-.91c.16-.429.215-.904.269-1.37l.02-.182c.026-.371.028-.743.01-1.115h15.006c0 .126-.003.246-.006.362-.005.22-.01.425.006.628.008.113.014.227.02.34.02.371.038.744.15 1.09.203.667.659 1.144 1.41 1.16.75.018 1.225-.42 1.452-1.087.114-.417.177-.846.185-1.279.016-.263.011-.527.006-.81-.003-.148-.006-.301-.006-.462zm-2.672-11.635v.002l.532 1.416H16.545c.134-.361.268-.715.4-1.065.265-.706.524-1.395.775-2.088l.035-.098c.457-1.269.654-1.817 1.04-2.048.294-.175.697-.168 1.407-.156.243.005.521.01.843.008 1.325-.006 2.651-.004 3.977-.003 1.768.003 3.536.005 5.303-.011.792-.01 1.278.28 1.545 1.016.367 1.004.744 2.005 1.128 3.027zm-1.472 4.166a1.888 1.888 0 0 1 2.67.044c.348.358.541.84.538 1.34a1.93 1.93 0 0 1-1.931 1.862 1.888 1.888 0 0 1-1.277-3.246zm-12.987.064a1.863 1.863 0 0 1 .387 2.04 1.877 1.877 0 0 1-1.754 1.144 1.915 1.915 0 0 1-1.822-1.888 1.863 1.863 0 0 1 3.189-1.296z"/>
        <path d="m35.632 14.175-1.164.47c-1.064.43-2.065.834-3.067 1.233a.478.478 0 0 1-.325.02 608.98 608.98 0 0 1-4.47-1.855.622.622 0 0 1-.145-.124c1.21-.967 2.555-.764 3.889-.563.19.028.382.057.572.082 1.05.14 2.083.31 3.185.49.493.08.998.163 1.525.247zM28.094 20.115v.622l12.663.004v-.626H28.095z"/>
    </g>
    <rect x=".5" y=".5" width="55" height="55" rx="11.5" stroke="#EAECF0"/>
    <defs>
        <clipPath id="m56oq07kna">
            <path fill="#fff" transform="translate(12 12)" d="M0 0h32v32H0z"/>
        </clipPath>
    </defs>
</svg>
