<svg width="32" height="32" viewBox="0 0 32 32" fill="none" xmlns="http://www.w3.org/2000/svg">
    <path fill-rule="evenodd" clip-rule="evenodd" d="M1 27.413c.54-7.002 2.675-5.604 8.649-9.342.944 2.451 3.806 3.592 6.406 3.262a7.958 7.958 0 0 0-.244 6.08H1zm22.302-8.849a6.094 6.094 0 0 1 4.315 1.788 6.115 6.115 0 0 1 1.534 6.058 6.063 6.063 0 0 1-.62 1.403l1.901 2.114a.29.29 0 0 1-.017.412l-1.735 1.584a.29.29 0 0 1-.412-.018l-1.798-2.024a6.095 6.095 0 0 1-8.806-2.882 6.114 6.114 0 0 1 3.305-7.971 6.074 6.074 0 0 1 2.333-.464zm3.443 2.66a4.883 4.883 0 0 0-5.305-1.058c-3.248 1.344-3.994 5.532-1.581 7.942a4.885 4.885 0 0 0 5.305 1.059 4.868 4.868 0 0 0 3.006-4.501c0-.661-.13-1.29-.367-1.862a4.894 4.894 0 0 0-1.058-1.58zm-15.343-3.43c-.064-.114.203-.839.271-.953-.78-.695-1.397-1.396-1.528-2.837h-.084a1.13 1.13 0 0 1-.554-.145c-.28-.16-.476-.432-.609-.74-.281-.646-.504-2.134.204-2.62l-.133-.088-.015-.187a20.355 20.355 0 0 1-.041-1.19c-.076-4.74-3.9-2.772 1.685-7.168C11.835.89 13.092.243 14.323.056c1.265-.192 2.49.098 3.622 1.014.334.27.659.594.972.974 1.207.117 2.194.768 2.9 1.696.42.554.74 1.21.943 1.906.203.693.291 1.432.254 2.16-.069 1.302-.545 1.94-1.505 2.867.17.006.328.045.469.12.535.287.552.909.412 1.43-.14.437-.316.732-.483 1.157-.203.574-.499.68-1.071.619-.03 1.418-.685 2.115-1.567 2.948l.199.698-.008.032a7.939 7.939 0 0 0-1.795 1.346l-.006.007a7.8 7.8 0 0 0-.534.59c-2.012.51-4.72-.038-5.723-1.826z" fill="#344054"/>
</svg>
