<svg width="33" height="32" viewBox="0 0 33 32" fill="none" xmlns="http://www.w3.org/2000/svg">
    <g clip-path="url(#6mxuzgzvja)">
        <path fill-rule="evenodd" clip-rule="evenodd" d="M2.777 8.413H3.98v17.066H2.777A2.28 2.28 0 0 1 .5 23.205V10.687a2.282 2.282 0 0 1 2.277-2.274zm17.087 18.652c-.138-.52.023-1.112.352-1.823l-3.262-1.003c-.197-.03-.22-.138-.153-.291l.456-.672a.443.443 0 0 1 .328-.154l3.597-.339 2.037-3.876-7.91-2.727c-.196-.055-.24-.161-.1-.341l.758-1.042 9.378.114 1.841-3.448c.664-.98 1.415-1.54 2.102-1.563a.69.69 0 0 1 .732.367c.388.6.295 1.563-.245 2.68l-2.068 3.319 4.793 8.075-.521 1.172c-.083.208-.198.224-.344.083l-6.324-5.47-2.345 3.7 1.506 3.286a.432.432 0 0 1 .031.36l-.325.734c-.1.136-.206.17-.329 0l-2.51-2.302c-.443.635-.876 1.068-1.4 1.208-.046 0-.062 0-.075-.046zM11.141 4h4.527a2.566 2.566 0 0 1 2.56 2.56v1.368h-1.63V6.555a.901.901 0 0 0-.899-.898h-4.59a.901.901 0 0 0-.898.898v1.373H8.575V6.561A2.566 2.566 0 0 1 11.14 4zM5.329 8.413h16.03v3.805l-5.21-.065a2.658 2.658 0 0 0-2.344 1.084l-.708.956a2.745 2.745 0 0 0-.521 2.688 2.716 2.716 0 0 0 1.99 1.854l4.56 1.579-1.76.167c-.393.025-.777.129-1.13.304a3.11 3.11 0 0 0-.907.667c-.096.1-.183.208-.26.323l-.362.521c-.14.176-.255.37-.344.576a2.773 2.773 0 0 0-.164 1.935 2.506 2.506 0 0 0 .273.667H5.33V8.413zm17.382 0h1.506a2.266 2.266 0 0 1 1.55.604c-.258.28-.495.577-.709.89-.074.102-.14.208-.2.319l-1.079 2.02-1.057-.012V8.413h-.01z" fill="#344054"/>
    </g>
    <defs>
        <clipPath id="6mxuzgzvja">
            <path fill="#fff" transform="translate(.5)" d="M0 0h32v32H0z"/>
        </clipPath>
    </defs>
</svg>
