<svg width="56" height="56" viewBox="0 0 56 56" fill="none" xmlns="http://www.w3.org/2000/svg">
    <g clip-path="url(#kxnfb0t77a)" fill="#344054">
        <path d="M35.35 16.422h2.387c.469 0 .896.192 1.206.5.309.308.5.738.56 1.207v7.919l-.024-.008-.048-.016-.024-.008-.023-.008-.025-.008-.023-.008-.097-.032-.024-.009-.024-.008-.024-.008-.12-.042-.023-.009-.024-.008-.023-.009-.025-.009-.016-.005-.008-.003-.023-.008-.025-.01-.07-.025-.025-.01-.047-.017-.024-.009-.023-.01-.025-.008-.023-.009-.024-.01-.023-.008h-.002l-.022-.01-.024-.009-.024-.008-.023-.01-.048-.018-.047-.019-.048-.018-.023-.01-.023-.01-.024-.01-.032-.012-.015-.006-.024-.01-.023-.01-.024-.008-.023-.01-.024-.01-.023-.01-.013-.004-.01-.005-.025-.01-.023-.01-.023-.01-.023-.009V18.13a.225.225 0 0 0-.075-.171.24.24 0 0 0-.17-.075H35.35v6.3l-.02-.011-.004-.003-.023-.013-.024-.013-.023-.013-.024-.014-.023-.013-.023-.013-.01-.005-.014-.01-.024-.012-.023-.014-.024-.013-.023-.014-.024-.014-.02-.012h-.003L35 23.981l-.023-.014-.023-.013-.047-.028-.023-.013-.011-.006-.012-.008-.023-.013-.092-.055-.023-.013h-.001l-.023-.014-.022-.013-.046-.028-.023-.013-.023-.014-.013-.008-.01-.005-.023-.015-.022-.013-.022-.014-.023-.013-.023-.014-.023-.014-.003-.002-.02-.011-.022-.014-.023-.015-.022-.013-.023-.014-.022-.014-.016-.01-.007-.003-.022-.014-.067-.041-.023-.015-.022-.013-.005-.004-.017-.01-.023-.014-.022-.014-.022-.014-.022-.013-.022-.015-.018-.01-.004-.003-.023-.014-.021-.014-.022-.014-.022-.014v-9.603a.25.25 0 0 0-.246-.244H15.707a.25.25 0 0 0-.245.244V33.97a.25.25 0 0 0 .245.245h8.053c.1.502.214.988.338 1.46h-4.546v2.717c0 .066.026.129.073.171a.243.243 0 0 0 .172.074h5.33c.225.51.469.997.731 1.461h-6.061a1.704 1.704 0 0 1-1.706-1.706v-2.715h-2.384A1.71 1.71 0 0 1 14 33.97V13.706c0-.94.766-1.706 1.707-1.706h17.937c.94 0 1.707.767 1.707 1.706v2.716z"/>
        <path d="M19.404 30.59a.712.712 0 0 1 0-1.423h3.797v.022l.002.023.015.361v.023l.001.022.002.023V29.663l.002.023v.022l.002.022.001.023.017.311.001.022.002.022v.022l.002.02v.002l.002.023.003.043.001.023.002.021.02.285.002.043h-3.873zM19.41 18.38a.712.712 0 0 1 0-1.424h10.53a.712.712 0 0 1 0 1.423H19.41zM19.404 22.317a.712.712 0 0 1 0-1.424h10.529a.712.712 0 0 1 0 1.424H19.404zM19.404 26.454a.712.712 0 0 1 0-1.424h10.529c.225 0 .425.105.556.268l-.064.03-.02.008-.045.02-.066.027-.13.055-.065.027-.065.026-.065.026-.021.009-.11.043-.065.025-.028.01-.037.015-.065.024-.13.047-.066.024-.065.023-.066.023-.13.044-.066.021-.04.013-.025.009-.066.02-.065.021-.01.003-.056.017-.065.02-.132.04-.065.018-.065.02-.066.017-.05.015-.016.003-.197.053-.13.032-.067.016-.065.017-.025.005-.042.01-.125.029h-.006l-.066.016-.065.014-.03.006-.037.008-.065.013-.133.027-.065.012-.036.007-.03.006-.067.012-.065.011-.005.001-.061.01-.066.012-.04.007-.027.004-.065.01-.066.01-.01.003-.056.008-.067.01-.045.006-.02.003-.067.01-.066.008-.015.003-.118.014h-6.885zM34.584 31.407h-1.42a.483.483 0 0 0-.482.482v1.788h-1.788a.483.483 0 0 0-.482.481v1.42c0 .265.217.483.482.483h1.788v1.747c0 .264.217.482.482.482h1.42a.483.483 0 0 0 .481-.482V36.06h1.79a.484.484 0 0 0 .48-.483v-1.419a.483.483 0 0 0-.48-.482h-1.79V31.89a.483.483 0 0 0-.48-.482z"/>
        <path fill-rule="evenodd" clip-rule="evenodd" d="M41.996 28.69c.413 8.334-2.665 13.257-8.12 15.31-5.268-1.923-8.381-6.632-8.151-15.436 2.77.144 5.488-.453 8.121-2.499 2.337 1.483 5.315 2.884 8.15 2.626zm-8.146-1.196c2.558 1.62 4.868 2.389 6.852 2.207.345 7.004-2.24 11.14-6.825 12.869-4.427-1.615-7.045-5.574-6.853-12.976 2.332.123 4.616-.38 6.826-2.1z"/>
    </g>
    <rect x=".5" y=".5" width="55" height="55" rx="11.5" stroke="#EAECF0"/>
    <defs>
        <clipPath id="kxnfb0t77a">
            <path fill="#fff" transform="translate(12 12)" d="M0 0h32v32H0z"/>
        </clipPath>
    </defs>
</svg>
