<svg width="57" height="56" viewBox="0 0 57 56" fill="none" xmlns="http://www.w3.org/2000/svg">
    <g clip-path="url(#0o7gw99vaa)">
        <path fill-rule="evenodd" clip-rule="evenodd" d="M17.539 42.374c.374-1.174 1.815-9.752 2.489-13.894 0 .744-.019 1.804-.04 3.02-.082 4.557-.202 11.307.487 11.81.698.511 2.66.483 3.553.405 1.298-.107 4.473-.285 6.787-.15 2.894.171 4.703.065 5.447-.17.596-.187.73-.886.724-1.212V28.566c.503 4.737 2.319 14.695 2.936 15.064 1.426.85 3.851-.043 4.298-.234.357-.154.277-.958.191-1.34-1.035-7.285-3.595-22.32-5.553-24.193-1.957-1.872-4.589-2.496-5.66-2.574.142-.092.4-.524.298-1.51-.127-1.235-2.255-1.682-2.957-1.724-.702-.043-4.83-.256-6.256.595-1.14.681-.815 2.043-.51 2.639-3.128.404-6.15 2.468-6.766 4.234-.617 1.766-2.022 8.766-2.362 10.51l-.076.39c-.5 2.55-2.353 11.993-2.052 12.675.32.723 2.426.957 3.575.83l.055-.007c.467-.051.704-.078.86-.204.161-.132.234-.373.383-.863.042-.139.09-.297.149-.48zm10.49-26.085a.468.468 0 1 1 .935 0v26.256a.468.468 0 1 1-.936 0V16.289zm.467-3.825c-.902-.021-2.85.013-3.426.321-.577.308-.24.927 0 1.198.458.442 1.785 1.327 3.426 1.327 1.642 0 2.969-.88 3.427-1.322.24-.27.576-.89 0-1.198-.576-.308-2.525-.347-3.427-.326z" fill="#1D2939"/>
    </g>
    <rect x=".984" y=".5" width="55" height="55" rx="11.5" stroke="#EAECF0"/>
    <defs>
        <clipPath id="0o7gw99vaa">
            <path fill="#fff" transform="translate(12.484 12)" d="M0 0h32v32H0z"/>
        </clipPath>
    </defs>
</svg>
