<svg width="57" height="56" viewBox="0 0 57 56" fill="none" xmlns="http://www.w3.org/2000/svg">
    <g clip-path="url(#oweooom8oa)">
        <path fill-rule="evenodd" clip-rule="evenodd" d="M40.408 21.649a8.046 8.046 0 0 1-1.763 1.458.246.246 0 0 1-.284.008 9.894 9.894 0 0 1-2.45-2.188c-.893-1.12-1.456-2.362-1.648-3.557-.196-1.214-.014-2.38.59-3.33.24-.373.545-.717.915-1.011.851-.677 1.823-1.037 2.794-1.029.932.008 1.854.354 2.651 1.08.281.256.516.545.708.863.649 1.07.79 2.432.503 3.815-.281 1.367-.98 2.755-2.016 3.89zm-20.19 14.325a8.043 8.043 0 0 1-1.763 1.458.246.246 0 0 1-.284.008 9.946 9.946 0 0 1-2.45-2.187c-.89-1.117-1.453-2.36-1.646-3.558-.195-1.213-.013-2.38.591-3.328a4.03 4.03 0 0 1 .914-1.01c.852-.677 1.823-1.037 2.792-1.029.932.008 1.854.354 2.65 1.081.282.255.517.544.71.862.648 1.07.788 2.432.502 3.815-.281 1.365-.98 2.753-2.016 3.888zm-1.773 2.86c1.174 0 2.166.786 2.479 1.859h15.617c.771 0 1.474-.315 1.985-.826a2.797 2.797 0 0 0 0-3.968 2.797 2.797 0 0 0-1.985-.826h-5.463c-1.227 0-2.341-.5-3.149-1.307a4.443 4.443 0 0 1 0-6.297 4.443 4.443 0 0 1 3.149-1.307h4.94a2.584 2.584 0 1 1 .01 1.648h-4.95c-.771 0-1.474.315-1.985.826a2.797 2.797 0 0 0 0 3.968c.506.505 1.2.82 1.966.826h5.485c1.226 0 2.34.5 3.148 1.307a4.443 4.443 0 0 1 0 6.297 4.443 4.443 0 0 1-3.148 1.307H20.859a2.584 2.584 0 1 1-2.414-3.508zm-.258-10.35a2.083 2.083 0 1 1 .001 4.166 2.083 2.083 0 0 1-.001-4.165zm20.19-14.328a2.083 2.083 0 1 1 .001 4.166 2.083 2.083 0 0 1 0-4.166z" fill="#344054"/>
    </g>
    <rect x="1.215" y=".5" width="55" height="55" rx="11.5" stroke="#EAECF0"/>
    <defs>
        <clipPath id="oweooom8oa">
            <path fill="#fff" transform="translate(12.715 12)" d="M0 0h32v32H0z"/>
        </clipPath>
    </defs>
</svg>
