<svg width="57" height="56" viewBox="0 0 57 56" fill="none" xmlns="http://www.w3.org/2000/svg">
    <g clip-path="url(#coar7qmgga)">
        <path fill-rule="evenodd" clip-rule="evenodd" d="M38.168 23.748c-1.16 2.421-5.297 2.421-6.456 0-1.16 2.421-5.297 2.421-6.456 0-1.16 2.421-5.296 2.421-6.456 0-1.274 2.661-6.297 2.345-6.297-1.557 0-.21-.063-1.304.045-1.516l2.162-7.601c.178-.626.612-1.028 1.453-1.073L40.636 12c.755.09 1.246.437 1.45 1.067l2.327 7.598c.12.219.052 1.294.052 1.526 0 3.997-5.112 4.032-6.297 1.558zm4.133 3.275v15.12c0 .509-.19.974-.498 1.31a1.62 1.62 0 0 1-1.195.547H16.36c-.464 0-.887-.21-1.194-.546h-.002a1.946 1.946 0 0 1-.498-1.312V27.038a5.68 5.68 0 0 0 1.399.103v15.001c0 .088.034.17.087.227.053.06.127.096.208.096h5.31a30.216 30.216 0 0 1-1.067-3.91c-.16-.796-.288-1.6-.38-2.41l-.026-.206c-.172-1.447-.356-2.994.92-3.709.376-.209.94-.349 1.36-.47.195-.057.38-.108.556-.155.026.115.055.227.088.339a1.182 1.182 0 0 0-.236.382 1.268 1.268 0 0 0-.083.453c0 .647.478 1.172 1.069 1.172a.944.944 0 0 0 .217-.025c.27.372.58.709.92 1.004-.02.09-.03.182-.03.274 0 .648.478 1.172 1.068 1.172.321 0 .608-.155.804-.4l-.01.011c.183.063.37.115.56.156l-1.685 1.849-.251.275 3.02 3.314 3.02-3.314-1.929-2.117c.19-.04.378-.09.562-.152.195.233.474.378.785.378.59 0 1.068-.524 1.068-1.172 0-.083-.007-.165-.023-.244l.119-.103c.305-.276.584-.585.83-.923a.94.94 0 0 0 .182.017c.59 0 1.068-.525 1.068-1.172 0-.309-.109-.59-.287-.8.03-.098.056-.199.081-.3l1.096.315c.561.16.718.133 1.149.584 1.055 1.106.668 2.845.329 4.373-.058.258-.113.51-.16.759a39.77 39.77 0 0 1-1.204 4.755h5.438a.281.281 0 0 0 .207-.096.339.339 0 0 0 .088-.227V27.07c.463.042.935.035 1.398-.046zM23.72 31.415c.964-.297 1.594-.705 2.26-2.372a.387.387 0 0 1 .133-.173.337.337 0 0 1 .198-.064v-.002h4.407c.164 0 .304.122.347.287.17.52.373.978.62 1.352.234.353.507.633.838.825l.753.215-.035.134a.966.966 0 0 0-.142-.01c-.59 0-1.068.525-1.068 1.172 0 .294.098.563.261.768a5.224 5.224 0 0 1-.695.747 1.007 1.007 0 0 0-.674-.262c-.59 0-1.068.525-1.068 1.172 0 .026 0 .05.002.075a4.504 4.504 0 0 1-.908.183 6.575 6.575 0 0 1-.924-.003 4.584 4.584 0 0 1-.911-.193c-.006.116 0-.03 0-.062 0-.647-.477-1.172-1.067-1.172-.246 0-.472.09-.652.244a5.263 5.263 0 0 1-.696-.756c.15-.2.24-.46.24-.741 0-.648-.478-1.172-1.067-1.172-.035 0-.07.002-.103.005l-.05-.197zm9.379.8c.136 0 .266.06.363.166.096.105.15.248.15.398 0 .15-.054.292-.15.398a.491.491 0 0 1-.363.165.491.491 0 0 1-.363-.165.592.592 0 0 1-.15-.398c0-.15.054-.293.15-.398a.491.491 0 0 1 .363-.165zm-9.227 0c.283 0 .512.253.512.564 0 .311-.23.563-.512.563-.284 0-.514-.252-.514-.563 0-.31.23-.563.514-.563zm2.175 2.426c.284 0 .513.253.513.563 0 .31-.23.563-.513.563-.283 0-.513-.252-.513-.563 0-.31.23-.563.513-.563zm4.876 0c.284 0 .513.253.513.563 0 .15-.054.293-.15.398a.491.491 0 0 1-.363.165.491.491 0 0 1-.363-.165.592.592 0 0 1-.15-.398c0-.31.23-.563.513-.563zm-4.173 3.626 1.735-1.903 1.736 1.903-1.736 1.905-1.735-1.905z" fill="#1D2939"/>
    </g>
    <rect x=".984" y=".5" width="55" height="55" rx="11.5" stroke="#EAECF0"/>
    <defs>
        <clipPath id="coar7qmgga">
            <path fill="#fff" transform="translate(12.484 12)" d="M0 0h32v32H0z"/>
        </clipPath>
    </defs>
</svg>
