<svg width="57" height="56" viewBox="0 0 57 56" fill="none" xmlns="http://www.w3.org/2000/svg">
    <rect x="1" y=".5" width="55" height="55" rx="11.5" fill="#ECFDFF"/>
    <g clip-path="url(#zpqcojr2wa)" fill="#0E7090">
        <path fill-rule="evenodd" clip-rule="evenodd" d="M19.81 12a7.306 7.306 0 1 0 5.163 2.14A7.27 7.27 0 0 0 19.81 12zm-3.31 3.5c0-.276.196-.5.438-.5h6.125c.241 0 .437.224.437.5s-.196.5-.438.5h-2.625v2.11l1.138-.568c.221-.11.479.005.576.258.097.253-.004.547-.226.658l-1.488.744v.908l1.138-.568c.221-.11.479.005.576.258.097.253-.004.547-.226.658l-1.488.744V23.5c0 .276-.195.5-.437.5s-.438-.224-.438-.5v-1.86l-1.137.568c-.221.11-.479-.005-.576-.258-.097-.253.004-.547.226-.658l1.488-.744v-.908l-1.138.568c-.221.11-.479-.005-.576-.258-.097-.253.004-.547.226-.658l1.488-.744V16h-2.625c-.242 0-.438-.224-.438-.5z"/>
        <path d="M40.343 26.607c.367-5.338-.454-8.618-6.289-8.618H33.2v-1.625c0-.813-.192-.953-.78-.396l-3.167 3.01c-.383.362-.328.599.037.95l3.127 3.008c.547.552.78.395.78-.365v-1.924c4.636-.292 4.563 2.165 4.483 4.875-.011.36-.022.723-.022 1.085h2.685zM16.61 28.807c-.368 5.338.453 8.616 6.288 8.616h.854v1.627c0 .813.19.953.78.396l3.167-3.01c.382-.362.328-.599-.037-.95l-3.124-2.997c-.547-.555-.781-.398-.781.364v1.914c-4.633.292-4.56-2.165-4.48-4.875.011-.359.022-.723.022-1.085h-2.69zM35.102 38.18 34.764 37h.675l-.337 1.18zM37.102 34.82l.337 1.18h-.675l.338-1.18zM39.102 38.18 38.764 37h.675l-.337 1.18z"/>
        <path fill-rule="evenodd" clip-rule="evenodd" d="M32.561 30.42a7.305 7.305 0 0 1 4.636-1.657 7.27 7.27 0 0 1 5.163 2.14 7.306 7.306 0 1 1-9.799-.484zm1.021 2.443a.5.5 0 1 0-.961.275L33.439 36h-.837a.5.5 0 1 0 0 1h1.122l.897 3.137a.5.5 0 0 0 .961 0L36.48 37h1.245l.897 3.137a.5.5 0 0 0 .961 0L40.48 37h1.123a.5.5 0 0 0 0-1h-.838l.818-2.862a.5.5 0 1 0-.961-.275L39.724 36H38.48l-.897-3.137a.5.5 0 0 0-.961 0L35.724 36H34.48l-.897-3.137z"/>
    </g>
    <rect x="1" y=".5" width="55" height="55" rx="11.5" stroke="#06AED4"/>
    <defs>
        <clipPath id="zpqcojr2wa">
            <path fill="#fff" transform="translate(12.5 12)" d="M0 0h32v32H0z"/>
        </clipPath>
    </defs>
</svg>
