<svg width="57" height="56" viewBox="0 0 57 56" fill="none" xmlns="http://www.w3.org/2000/svg">
    <g clip-path="url(#lp42n5sxva)">
        <path fill-rule="evenodd" clip-rule="evenodd" d="m35.218 25.003 4.754-8.234L31.568 12l-8.283 14.346a6.813 6.813 0 0 1 1.862-.467l6.067-10.508c.785.447 1.658.205 2.048-.48l3.308 1.91c-.377.663-.135 1.537.548 1.924l-3.23 5.594c.463.187.905.422 1.33.684zm-18.61 10.813a.692.692 0 1 1 0 1.385.692.692 0 0 1 0-1.385zm20.137-6.037c0-.13.008-.255.024-.373l-1.36-.909c-.196-.13-.41-.28-.626-.43-.773-.543-1.57-1.1-2.429-1.326a6.694 6.694 0 0 0-1.547-.214 5.35 5.35 0 0 0-1.423.154c-.274.072-.538.17-.783.299a2.774 2.774 0 0 0-.602.425l-.914 1.087a.394.394 0 0 1-.114.136l-2.52 2.998c.038.191.114.352.217.48.12.149.28.26.464.328.195.074.42.102.658.082.38-.032.785-.187 1.151-.476l.7-.579c.177-.146.324-.28.47-.415.324-.295.647-.59.986-.792.785-.468 1.566-.483 2.339.813l3.961 7.145h1.347l.001-8.433zm.32-1.143c.06-.085.13-.163.21-.234.345-.311.84-.463 1.475-.464v-.002l3.444.002c.72-.004 1.306.128 1.712.44.452.348.664.878.573 1.638l-.761 7.867c-.056.703-.241 1.253-.572 1.634-.352.404-.842.604-1.484.577h-3.097a1.58 1.58 0 0 1-1.108-.34 2.078 2.078 0 0 1-.562-.733h-1.07c.143.422.136.822.021 1.177-.119.366-.35.678-.644.91-.288.23-.64.386-1.007.446-.36.06-.735.027-1.085-.118-.406.425-.834.692-1.28.815a2.235 2.235 0 0 1-1.361-.063c-.436.483-.918.786-1.449.901-.54.117-1.115.037-1.724-.25-.19.148-.389.265-.596.351a2.223 2.223 0 0 1-.925.169c-.771-.023-1.291-.252-1.705-.622-.395-.352-.66-.805-.96-1.326l-1.706-2.978H20.08c-.075.373-.203.69-.393.944l-.018.027c-.338.433-.834.664-1.519.65l-2.888.001c-.572.093-1.063-.047-1.447-.492-.34-.395-.572-1.032-.67-1.971l-.005-.035-.597-7.393c-.118-.798.012-1.362.333-1.748.324-.389.811-.564 1.413-.592l.05-.003h3.656v.002c.578-.007 1.074.088 1.45.33v.002c.302.196.52.473.632.848h2.488c.625-.422 1.21-.753 1.858-.955.636-.198 1.317-.267 2.132-.17l.851-1.013.032-.034c.237-.225.503-.411.789-.562.3-.158.622-.278.956-.364a6.127 6.127 0 0 1 1.637-.18 7.487 7.487 0 0 1 1.737.239h.002c.993.26 1.85.862 2.684 1.445.199.14.397.279.612.422l1.21.805zm-17.712.883a.405.405 0 0 1-.015-.145c-.044-.26-.158-.436-.327-.545-.236-.15-.585-.21-1.012-.205h-.004v.002h-3.672c-.378.018-.668.108-.83.303-.175.21-.237.57-.152 1.129l.004.036.597 7.413c.082.767.246 1.26.48 1.53.185.214.438.276.74.22a.41.41 0 0 1 .073-.006l2.892-.002.043.003c.405.007.686-.114.863-.342l.014-.017c.196-.266.292-.676.307-1.201l-.001-8.173zm.805 8.11h1.478c.156 0 .292.088.359.218l1.814 3.164c.266.463.5.865.796 1.129.276.247.638.4 1.193.416.208.007.407-.03.597-.108.117-.048.231-.113.343-.194l-1.182-2.212a.403.403 0 0 1 .165-.543.4.4 0 0 1 .543.165l1.285 2.405c.478.243.911.319 1.301.234.357-.077.693-.291 1.01-.637l-1.853-2.906a.402.402 0 0 1 .676-.43l1.952 3.063c.342.138.671.17.984.084.299-.082.598-.274.898-.583l-1.769-3.328a.403.403 0 1 1 .711-.378l1.829 3.443c.238.138.513.174.778.13.231-.037.454-.137.636-.281.176-.14.313-.32.38-.527.073-.227.065-.494-.061-.784a.394.394 0 0 1-.032-.186.4.4 0 0 1-.23-.265l-4.013-7.241c-.446-.746-.849-.766-1.237-.535-.276.165-.566.43-.857.695-.175.161-.352.323-.498.444l-.713.586a2.964 2.964 0 0 1-1.585.651 2.322 2.322 0 0 1-1.004-.132 1.874 1.874 0 0 1-.81-.577 1.933 1.933 0 0 1-.414-1.07.403.403 0 0 1 .117-.318l2.17-2.582a3.96 3.96 0 0 0-1.253.177c-.584.18-1.13.499-1.726.906a.403.403 0 0 1-.25.086H20.16v7.82zm20.124-1.813a.692.692 0 1 1 0 1.385.692.692 0 0 1 0-1.385zm-9.115-15.581a2.202 2.202 0 0 0-1.785 3.602c1.068-.17 2.24-.114 3.296.115a2.202 2.202 0 0 0-1.511-3.717zm-9.546 6.776 7.302-12.647-1.188-.673-7.34 12.714c.275.162.547.378.766.606h.46z" fill="#344054"/>
    </g>
    <rect x="1" y=".5" width="55" height="55" rx="11.5" stroke="#EAECF0"/>
    <defs>
        <clipPath id="lp42n5sxva">
            <path fill="#fff" transform="translate(12.5 12)" d="M0 0h32v32H0z"/>
        </clipPath>
    </defs>
</svg>
