<svg width="57" height="56" viewBox="0 0 57 56" fill="none" xmlns="http://www.w3.org/2000/svg">
    <path fill-rule="evenodd" clip-rule="evenodd" d="m34.474 41.102 1.266-6.425 1.28 1.932c2.761-1.109 4.31-2.934 4.542-5.747 2.269 3.963.891 7.518-1.981 9.599l1.307 1.969-6.414-1.328zM14 34.539l18.198-18.198 9.46 9.461L23.462 44 14 34.54zm11.052-7.154a3.937 3.937 0 0 1 5.57 0 3.937 3.937 0 0 1 0 5.57 3.937 3.937 0 0 1-5.57 0 3.932 3.932 0 0 1 0-5.57zm-6.57 5.552L30.58 20.84c.77.77 2.026.77 2.794 0l3.742 3.74c-.77.77-.77 2.025 0 2.793L25.018 39.474a1.977 1.977 0 0 0-2.794 0l-3.742-3.74a1.98 1.98 0 0 0 0-2.797zm8.002-19.609-1.265 6.425-1.282-1.933c-2.76 1.11-4.31 2.935-4.541 5.748-2.268-3.964-.89-7.519 1.982-9.6L20.073 12l6.411 1.328z" fill="#344054"/>
    <rect x="1.219" y=".5" width="55" height="55" rx="11.5" stroke="#EAECF0"/>
</svg>
