<svg width="57" height="56" viewBox="0 0 57 56" fill="none" xmlns="http://www.w3.org/2000/svg">
    <g clip-path="url(#jdgbie97sa)">
        <path fill-rule="evenodd" clip-rule="evenodd" d="M37.774 27.62c0 2.584-.909 4.79-2.73 6.61-1.822 1.823-4.025 2.734-6.608 2.734-2.573 0-4.776-.909-6.602-2.734-1.823-1.82-2.74-4.026-2.74-6.61 0-2.575.915-4.77 2.74-6.598 1.831-1.823 4.031-2.74 6.602-2.74 2.583 0 4.786.915 6.609 2.74 1.817 1.828 2.729 4.023 2.729 6.599zM16.696 25.9c.82-.56 1.232-1.292 1.162-2.967V18.63c-.008-.602-1.099-.675-1.154 0l-.041 3.492c-.003.654-.985.674-.982 0l.042-3.612c-.014-.646-1.055-.71-1.068 0 0 1.003-.042 2.61-.042 3.612.052.633-.86.716-.836 0l.042-3.588c-.024-.488-.56-.662-.925-.433-.387.248-.31.745-.325 1.164l-.135 4.12c.02 1.198.336 2.172 1.273 2.586.143.062.341.112.57.146l-.323 10.046a1.054 1.054 0 0 0 1.04 1.083h.13c.643 0 1.187-.55 1.169-1.218l-.284-9.914c.3-.047.547-.117.688-.214zm23.534 9.96-.016-9.023c-3.164-1.828-2.156-8.872 1.01-8.833 3.85.044 4.305 7.937.995 8.804l.245 9.089c.047 1.718-2.232 1.877-2.234-.037zm-6.357-8.247c0 1.505-.529 2.789-1.594 3.854-1.062 1.06-2.346 1.594-3.851 1.594-1.495 0-2.779-.534-3.841-1.594-1.063-1.065-1.594-2.349-1.594-3.854 0-1.495.531-2.779 1.594-3.838 1.065-1.06 2.346-1.594 3.84-1.594 3.024.002 5.446 2.406 5.446 5.432zm1.273 0c0-1.849-.65-3.43-1.96-4.74s-2.896-1.96-4.758-1.96c-1.857 0-3.438.65-4.74 1.96-1.31 1.31-1.968 2.891-1.968 4.74 0 1.854.659 3.435 1.968 4.75 1.302 1.312 2.883 1.971 4.74 1.971 1.86 0 3.445-.659 4.757-1.971 1.308-1.318 1.961-2.899 1.961-4.75z" fill="#344054"/>
    </g>
    <rect x=".934" y=".5" width="55" height="55" rx="11.5" stroke="#EAECF0"/>
    <defs>
        <clipPath id="jdgbie97sa">
            <path fill="#fff" transform="translate(12.434 12)" d="M0 0h32v32H0z"/>
        </clipPath>
    </defs>
</svg>
