<svg width="57" height="56" viewBox="0 0 57 56" fill="none" xmlns="http://www.w3.org/2000/svg">
    <g clip-path="url(#3dp6jdmkua)">
        <path fill-rule="evenodd" clip-rule="evenodd" d="M36.396 40.6v-9.413h-4.233c-1.795.322-3.59 1.295-5.385 2.425H23.49c-1.488.09-2.267 1.599-.822 2.59 1.153.845 2.675.797 4.234.657 1.075-.053 1.122 1.393 0 1.398-.39.03-.814-.061-1.183-.061-1.947-.002-3.55-.375-4.53-1.912l-.494-1.15-4.891-2.426c-2.448-.806-4.187 1.755-2.384 3.535a64.078 64.078 0 0 0 10.892 6.411c2.7 1.642 5.398 1.587 8.097 0l3.987-2.055zm-22.733-9.11c-.834-1.316-1.349-2.988-1.659-5.147a.45.45 0 0 1 .18-.425c.072-1.62.855-2.484 2.345-3.017.134-1.167 1.057-1.983 2.187-2.178 1.565-1.59 4.12-2.065 6.187-1.272.071.027.294.14.495.24a.157.157 0 0 1 .059.046 4.462 4.462 0 0 1 2.28-.898 4.867 4.867 0 0 1 1.67.121l2.632-5.273c.24-.469.624-.917 1.37-.555.2.097.375.246.492.427.338.519.054.88-.203 1.327l-2.85 4.724c.57.402 1.026.962 1.19 1.65.248.07.485.149.71.236l3.316-5.517c.277-.448.696-.864 1.41-.444.191.113.354.276.457.464.295.545-.017.883-.31 1.308l-3.462 4.927c1.258.883 2.052 2.253 1.702 3.83-.02.087.02.12.02.216l-.004.057c-.01.176-.025.352-.044.527a9.63 9.63 0 0 1-.823 3.032h-.847a.936.936 0 0 0-.159.013 8.66 8.66 0 0 0 .944-3.18H12.97c.32 1.934.828 3.41 1.626 4.547-.331.028-.644.102-.933.214zm14.438-6.477a.448.448 0 1 1 0-.897h1.004a.448.448 0 1 1 0 .897h-1.004zm-.243-2.979a.447.447 0 1 1-.364.817l-.916-.412a.448.448 0 0 1 .364-.817l.916.412zm-5.104.302a.45.45 0 1 1 .338-.835l1.004.41a.45.45 0 0 1-.338.835l-1.004-.41zm-.346 2.677a.449.449 0 1 1 0-.897h1.005a.448.448 0 1 1 0 .897h-1.005zm-3.412-2.04a.448.448 0 0 1-.365-.816l.916-.412a.447.447 0 0 1 .365.817l-.916.412zm-1.979 2.04a.448.448 0 1 1 0-.897h1.005a.45.45 0 0 1 0 .897h-1.005zm-3.93.819h19.91c.431-2.096-1.734-3.351-3.457-3.778a.447.447 0 0 1-.338-.388c-.09-.87-.916-1.47-1.681-1.739a3.929 3.929 0 0 0-1.694-.198 3.56 3.56 0 0 0-1.976.84.445.445 0 0 1-.32.135c-.21 0-.712-.326-.947-.416-1.772-.68-4.02-.256-5.322 1.159a.446.446 0 0 1-.28.142c-.871.097-1.57.7-1.576 1.61a.45.45 0 0 1-.314.458c-1.193.374-1.906.864-2.005 2.175zm1.663 2.047a.358.358 0 1 1 .673-.242c.245.678.556 1.332.932 1.947a.358.358 0 1 1-.611.373c-.4-.655-.735-1.357-.994-2.078zm1.602 2.968a.36.36 0 0 1 .333-.572c.094.013.18.062.237.138.293.383.613.739.972 1.062a.36.36 0 0 1-.48.533 8.65 8.65 0 0 1-1.062-1.16zm27.094-.564h-5.222a.555.555 0 0 0-.554.554V40.99c0 .305.25.554.554.554h5.222c.305 0 .554-.25.554-.554V30.837a.555.555 0 0 0-.554-.554zm-2.611 1.71a.824.824 0 1 0 0 1.647.824.824 0 0 0 0-1.648z" fill="#344054"/>
    </g>
    <rect x=".785" y=".5" width="55" height="55" rx="11.5" stroke="#EAECF0"/>
    <defs>
        <clipPath id="3dp6jdmkua">
            <path fill="#fff" transform="translate(12.285 12)" d="M0 0h32v32H0z"/>
        </clipPath>
    </defs>
</svg>
