<svg width="56" height="56" viewBox="0 0 56 56" fill="none" xmlns="http://www.w3.org/2000/svg">
    <path fill-rule="evenodd" clip-rule="evenodd" d="M36.833 19.166c2.865-1.346 5.256-1.323 7.167-.026l-16.927 9.753a3.365 3.365 0 0 1-1.88.781c-.63.034-.857-.146-1.404-.247a1.88 1.88 0 0 0-1.406.26l-.445.406c-.399.363-.878.678-.8 1.303.052.411.404.757.961 1.057.418.372.753.828.984 1.338.23.536.357 1.11.375 1.693-.101 1.966-1.02 3.664-3.231 4.948-2.521 1.563-4.652 1.372-6.558.224C12.521 39.763 12 38.692 12 37.479c0-1.865.888-3.36 2.273-4.526a19.183 19.183 0 0 1 3.107-2l3.646-2.852.065.222 15.742-9.157zm0 17.214c2.865 1.346 5.256 1.323 7.167.026l-13.99-8.06-3.55 2.003 10.373 6.03zm-13.82-10.255a1.925 1.925 0 0 1-.628-.26l-.445-.407c-.398-.362-.878-.677-.8-1.302.053-.414.404-.76.962-1.057.418-.378.753-.84.981-1.355a4.65 4.65 0 0 0 .375-1.68c-.101-1.965-1.02-3.666-3.231-4.947-2.516-1.542-4.646-1.365-6.553-.216C12.521 15.784 12 16.864 12 18.07c0 1.852.888 3.36 2.273 4.523a19.013 19.013 0 0 0 3.107 2l3.537 2.769.156-.091.015-.047.032.02 1.893-1.12zm-2.458-4.2c1.018-.665 1.122-1.785.747-2.852-.3-.857-.943-1.597-1.906-2.209a5.562 5.562 0 0 0-3.26-.84c-2.198.2-2.605 2.158-1.654 3.869a4.445 4.445 0 0 0 1.919 1.802c.615.32 1.278.535 1.964.638a3.167 3.167 0 0 0 2.19-.406v-.003zm5.789 5.905a.932.932 0 1 1-1.864 0 .932.932 0 0 1 1.864 0zm-5.79 5.795c1.019.664 1.123 1.781.748 2.849-.3.86-.943 1.596-1.906 2.221a5.584 5.584 0 0 1-3.26.826c-2.198-.204-2.605-2.162-1.654-3.873a4.427 4.427 0 0 1 1.919-1.8 6.234 6.234 0 0 1 1.964-.637 3.167 3.167 0 0 1 2.19.409v.005z" fill="#344054"/>
    <rect x=".5" y=".5" width="55" height="55" rx="11.5" stroke="#EAECF0"/>
</svg>
