<svg width="57" height="56" viewBox="0 0 57 56" fill="none" xmlns="http://www.w3.org/2000/svg">
    <g clip-path="url(#rkwhou382a)">
        <path fill-rule="evenodd" clip-rule="evenodd" d="M25.76 34.034a12.438 12.438 0 0 1-2.998 5.768 12.017 12.017 0 0 1-2.575 2.138.898.898 0 0 1-1.018.037 14.584 14.584 0 0 1-3.61-3.222 11.575 11.575 0 0 1-2.445-5.297c-.3-1.849-.016-3.635.927-5.096a6.385 6.385 0 0 1 1.417-1.563 6.822 6.822 0 0 1 4.286-1.58 6.115 6.115 0 0 1 4.123 1.674c.433.392.807.843 1.112 1.341.992 1.641 1.213 3.714.78 5.8zm-2.083 7.575h20.445V22.365h-8.065v19.24h-.894V14.892H21.554v8.646h-.893V14.781a.781.781 0 0 1 .483-.72.78.78 0 0 1 .3-.061h13.829a.781.781 0 0 1 .555.23l.03.036a.781.781 0 0 1 .199.52v6.685h8.286a.642.642 0 0 1 .461.193.643.643 0 0 1 .193.461v19.93a.444.444 0 0 1-.448.445H22.661l.02-.018.024-.018.021-.019.024-.018.015-.013h.089l.015-.013v-.013H22.911l.016-.013h.044l.445-.51.029-.024h.015l.013-.013.014-.013.19-.206zm3.927-11.843h1.041a.154.154 0 0 1 .154.153v2.482a.156.156 0 0 1-.154.154h-.802c.03-.63.004-1.262-.078-1.888-.039-.3-.094-.597-.161-.888v-.013zm-.104 5.132h1.14a.154.154 0 0 1 .151.154v2.482a.153.153 0 0 1-.043.108.151.151 0 0 1-.108.045H26.48c.44-.89.781-1.825 1.02-2.789zm-1.303-10.265h2.448a.15.15 0 0 1 .151.15v2.483a.15.15 0 0 1-.15.153h-1.954l-.099-.166a8.856 8.856 0 0 0-.55-.808v-1.661a.15.15 0 0 1 .154-.151zm4.428 10.265h2.427a.153.153 0 0 1 .15.154v2.482a.15.15 0 0 1-.15.164h-2.448a.15.15 0 0 1-.154-.154v-2.492a.154.154 0 0 1 .154-.154h.02zm0-5.132h2.427a.15.15 0 0 1 .15.153v2.482a.154.154 0 0 1-.15.154h-2.448a.154.154 0 0 1-.154-.154v-2.482a.152.152 0 0 1 .154-.153h.02zm0-5.133h2.427a.151.151 0 0 1 .15.15v2.483a.15.15 0 0 1-.15.153h-2.448a.152.152 0 0 1-.143-.094.152.152 0 0 1-.011-.06v-2.481a.152.152 0 0 1 .095-.14.151.151 0 0 1 .059-.011h.02zm7.812 7.96h3.542c.041 0 .075.027.075.053v1.456c0 .026-.039.054-.075.054h-3.563c-.036 0-.075-.026-.075-.054v-1.456c0-.029.033-.052.075-.052h.021zM23.554 16.837h9.61a.362.362 0 0 1 .359.357v3.8a.362.362 0 0 1-.36.356h-9.609a.362.362 0 0 1-.36-.357v-3.8a.36.36 0 0 1 .36-.356zm14.862 12.573h3.542c.041 0 .075.029.075.055v1.463c0 .026-.039.055-.075.055h-3.542c-.036 0-.075-.026-.075-.055v-1.463c0-.032.033-.055.075-.055zm0-3.17h3.542c.041 0 .075.03.075.055v1.453c0 .026-.039.055-.075.055h-3.542c-.036 0-.075-.023-.075-.055v-1.466c0-.031.033-.054.075-.054v.013zM19.48 28.816a2.956 2.956 0 1 1 .005 5.912 2.956 2.956 0 0 1-.005-5.912z" fill="#344054"/>
    </g>
    <rect x="1.074" y=".5" width="55" height="55" rx="11.5" stroke="#EAECF0"/>
    <defs>
        <clipPath id="rkwhou382a">
            <path fill="#fff" transform="translate(12.574 12)" d="M0 0h32v32H0z"/>
        </clipPath>
    </defs>
</svg>
