<svg width="57" height="56" viewBox="0 0 57 56" fill="none" xmlns="http://www.w3.org/2000/svg">
    <g clip-path="url(#gykinjeooa)">
        <path fill-rule="evenodd" clip-rule="evenodd" d="M13 40.286h3.839V17.951c0-.211.174-.386.388-.386h.776l.367-1.497-1.422-1.203 1.857-.138.706-1.727.706 1.724 1.857.138-1.422 1.203.367 1.5c1.115 0 2.216.003 3.307.003l.368-1.503-1.422-1.203 1.857-.138.71-1.724.704 1.724 1.857.138-1.422 1.203.37 1.506 3.305.005.37-1.51-1.423-1.204 1.857-.138.709-1.724.705 1.724 1.857.138-1.422 1.203.37 1.513c1.091 0 2.19.003 3.302.003l.37-1.516-1.422-1.203 1.857-.138.709-1.724.705 1.724 1.857.138-1.422 1.203.373 1.519h.77c.214 0 .386.174.386.385v22.314H45v2.472H13v-2.469zm5.43-22.72h2.164l-1.083-.67-1.08.67zm6.318.005 2.183.002-1.094-.677-1.089.675zm6.316.007 2.209.003-1.107-.685-1.102.682zm6.316.006h2.224l-1.112-.688-1.112.688zM20.29 34.96h2.193c.07 0 .13.057.13.13v2.211a.13.13 0 0 1-.13.13H20.29a.13.13 0 0 1-.13-.13v-2.21a.132.132 0 0 1 .13-.13zm15.074 0h2.193c.07 0 .13.057.13.13v2.211a.13.13 0 0 1-.13.13h-2.193a.13.13 0 0 1-.13-.13v-2.21c0-.074.057-.13.13-.13zm-3.834-7.964h2.193c.07 0 .13.057.13.13v2.211a.13.13 0 0 1-.13.13H31.53a.13.13 0 0 1-.13-.13v-2.21c0-.071.057-.131.13-.131zm3.834 0h2.193c.07 0 .13.057.13.13v2.211a.13.13 0 0 1-.13.13h-2.193a.13.13 0 0 1-.13-.13v-2.21c0-.071.057-.131.13-.131zm0 3.982h2.193c.07 0 .13.057.13.13v2.211a.13.13 0 0 1-.13.13h-2.193a.13.13 0 0 1-.13-.13v-2.21c0-.071.057-.131.13-.131zm-3.834 0h2.193c.07 0 .13.057.13.13v2.211a.13.13 0 0 1-.13.13H31.53a.13.13 0 0 1-.13-.13v-2.21c0-.071.057-.131.13-.131zm0 3.982h2.193c.07 0 .13.057.13.13v2.211a.13.13 0 0 1-.13.13H31.53a.13.13 0 0 1-.13-.13v-2.21c0-.074.057-.13.13-.13zm-7.407-7.964h2.193c.07 0 .13.057.13.13v2.211a.13.13 0 0 1-.13.13h-2.193a.13.13 0 0 1-.13-.13v-2.21c0-.071.06-.131.13-.131zm-3.833 0h2.193c.07 0 .13.057.13.13v2.211a.13.13 0 0 1-.13.13H20.29a.13.13 0 0 1-.13-.13v-2.21c.002-.071.06-.131.13-.131zm0 3.982h2.193c.07 0 .13.057.13.13v2.211a.13.13 0 0 1-.13.13H20.29a.13.13 0 0 1-.13-.13v-2.21c.002-.071.06-.131.13-.131zm3.833 0h2.193c.07 0 .13.057.13.13v2.211a.13.13 0 0 1-.13.13h-2.193a.13.13 0 0 1-.13-.13v-2.21c0-.071.06-.131.13-.131zm0 3.982h2.193c.07 0 .13.057.13.13v2.211a.13.13 0 0 1-.13.13h-2.193a.13.13 0 0 1-.13-.13v-2.21c0-.074.06-.13.13-.13zm-4.886-15.095h1.227v1.43h1.344v-1.43h1.235v4.094h-1.235V22.3h-1.344v1.66h-1.226v-4.095zm4.464 2.05c0-.67.18-1.188.542-1.56.362-.373.865-.558 1.513-.558.662 0 1.172.183 1.532.55.359.367.536.878.536 1.537 0 .479-.078.87-.234 1.177a1.716 1.716 0 0 1-.68.716c-.297.172-.664.255-1.107.255-.448 0-.82-.073-1.114-.221a1.703 1.703 0 0 1-.714-.698c-.18-.32-.274-.719-.274-1.198zm1.23.005c0 .411.075.711.224.89.15.18.354.271.612.271.263 0 .468-.088.614-.265.146-.177.22-.495.22-.953 0-.386-.076-.667-.227-.844a.77.77 0 0 0-.615-.268.746.746 0 0 0-.6.27c-.153.183-.228.482-.228.899zm3.133-2.055h3.74v1.013h-1.256v3.084h-1.226v-3.084h-1.256v-1.013h-.002zm4.29 0h3.288v.875h-2.054v.651h1.906v.836h-1.906v.808h2.117v.927h-3.352v-4.097zm4.013 0h1.226v3.089h1.922v1.008h-3.148v-4.097zm-6.384 5.428h9.253c.154 0 .28.148.28.33v13.343c0 .182-.126.33-.28.33h-9.253c-.154 0-.279-.148-.279-.33v-13.34c0-.185.125-.333.28-.333zm-11.259-.019h9.254c.153 0 .278.149.278.331v13.36c0 .183-.125.331-.278.331h-9.254c-.153 0-.278-.148-.278-.33v-13.36c0-.183.125-.332.278-.332z" fill="#344054"/>
    </g>
    <rect x="1.359" y=".5" width="55" height="55" rx="11.5" stroke="#EAECF0"/>
    <defs>
        <clipPath id="gykinjeooa">
            <path fill="#fff" transform="translate(12.86 12)" d="M0 0h32v32H0z"/>
        </clipPath>
    </defs>
</svg>
