<svg width="57" height="56" viewBox="0 0 57 56" fill="none" xmlns="http://www.w3.org/2000/svg">
    <g clip-path="url(#x0aouqbvla)">
        <path fill-rule="evenodd" clip-rule="evenodd" d="M25.77 37.409v-.1a4.427 4.427 0 0 1 1.122-3.012l-3.58-3.578a1.5 1.5 0 0 0-2.118 0 1.5 1.5 0 0 0 0 2.114l4.576 4.576zm-2.117 2.994a1.063 1.063 0 0 1-.591 2.042 12.466 12.466 0 0 1-5.188-2.864 11.654 11.654 0 0 1-2.937-4.636 1.065 1.065 0 0 1 2.007-.708 9.56 9.56 0 0 0 2.396 3.804 10.346 10.346 0 0 0 4.313 2.375v-.013zm7.859-22.575a1.063 1.063 0 1 1 .906-1.922 11.65 11.65 0 0 1 2.654 1.706c.763.653 1.432 1.41 1.987 2.247a1.066 1.066 0 1 1-1.776 1.175 8.741 8.741 0 0 0-1.594-1.805 9.55 9.55 0 0 0-2.177-1.398v-.003zm1.086-3.745a1.063 1.063 0 0 1 .591-2.042 12.5 12.5 0 0 1 5.19 2.865 11.677 11.677 0 0 1 2.935 4.646 1.065 1.065 0 0 1-2.008.708 9.56 9.56 0 0 0-2.396-3.792 10.346 10.346 0 0 0-4.312-2.385zm6.37 16.497a7.593 7.593 0 0 0-2.216 1.428 3.753 3.753 0 0 0-1.084 1.765c-.152.607-.1 1.248.146 1.823.223.507.541.966.938 1.352l-.521.481c-2.685-2.88-1.269-5.638 2.112-7.356l-1.003-.953a3.177 3.177 0 0 0-.26-.235.48.48 0 0 1-.146-.083 2.995 2.995 0 0 0-1.914-.453 2.954 2.954 0 0 0-1.823.854l-.195.195h-.016l-5.378 5.404a.476.476 0 0 1-.14.099L27.37 35a2.96 2.96 0 0 0-.854 1.794c-.032.325-.014.653.055.971.142.504.411.963.781 1.334l3.234 3.234A5.651 5.651 0 0 0 34.557 44a5.485 5.485 0 0 0 3.931-1.617l2.454-2.454a5.693 5.693 0 0 0 1.854-4.351v-.029l-.037-7.612a.392.392 0 0 1 0-.078l.555.034-.552-.034c.073-1.185-.346-1.95-.904-2.292a1.343 1.343 0 0 0-.643-.203 1.207 1.207 0 0 0-.625.136c-.492.26-.865.867-.865 1.864 0 .23 0 .836-.015 1.412-.001.46-.047.92-.138 1.372a.555.555 0 0 1-.361.416.546.546 0 0 1-.248.027l.005-.01zm-11.62 3.193 2.112-2.117-5.73-5.73a1.505 1.505 0 0 0-1.614-.315 1.488 1.488 0 0 0-.922 1.384c0 .396.156.777.435 1.06l5.73 5.729-.011-.01zm2.682-2.682 2.117-2.117-7.552-7.552a1.508 1.508 0 0 0-2.12 0 1.508 1.508 0 0 0 0 2.12l7.553 7.551.002-.002zm2.797-2.471a4.57 4.57 0 0 1 3.029-1.13h.073l-6.693-6.696a1.502 1.502 0 0 0-2.117 0 1.502 1.502 0 0 0 0 2.117l5.706 5.711.002-.002z" fill="#344054"/>
    </g>
    <rect x="1.375" y=".5" width="55" height="55" rx="11.5" stroke="#EAECF0"/>
    <defs>
        <clipPath id="x0aouqbvla">
            <path fill="#fff" transform="translate(12.875 12)" d="M0 0h32v32H0z"/>
        </clipPath>
    </defs>
</svg>
