<svg width="57" height="56" viewBox="0 0 57 56" fill="none" xmlns="http://www.w3.org/2000/svg">
    <path fill-rule="evenodd" clip-rule="evenodd" d="M24.617 12.88c2.018-1.368 4.32-1.065 6.219.383.5.383.925.851 1.263 1.42.287.484.795 1.473-.15 1.627-.37.057-1.02-.445-1.522-.61a9.774 9.774 0 0 0-1.961-.411c-1.222-.122-2.427-.024-3.461.263-.56.156-1.107.346-1.63.586-.243.115-.743.443-.876.018-.317-.987 1.394-2.784 2.118-3.276zm10.037 26.974 1.102-1.146-.995-.995-1.102 1.146.995.995zm1.352-.906-1.068 1.148c.58.581 3.31 3.527 3.404 3.433l1.1-1.065a.061.061 0 0 0 0-.086l-3.436-3.43zm3.818 3.284a.34.34 0 0 1 0 .477L38.63 43.9a.34.34 0 0 1-.48 0l-4.948-4.948c-.01-.01-.161-.06-.398-.136-1.018 1.118-2.188 2.006-3.461 2.475-1.32.49-2.748.523-4.222-.094-.763-.32-1.545-.82-2.323-1.521-.714-.643-1.36-1.44-1.946-2.37-.542-.857-1.029-1.834-1.474-2.907a3.925 3.925 0 0 1-1.245-.625c-.61-.468-1.016-1.107-1.253-1.81-.263-.781-.31-1.648-.203-2.445.055-.415.172-.774.341-1.073.185-.318.425-.573.732-.766a.474.474 0 0 1 .284-.073c-.17-.88-.143-1.724-.11-2.716.095-2.59.75-4.655 2.79-6.45 3.076-2.708 9.168-2.942 12.556-.611.503.346.969.758 1.39 1.237 1.376 1.578 2.6 5.042 2.574 7.178a5.088 5.088 0 0 1-.255 1.508c-.005.05-.018.104-.031.166.37.235.661.521.877.847.316.484.456 1.04.422 1.63-.034.563-.226 1.157-.575 1.738-.41.671-1.032 1.33-1.86 1.893a19.13 19.13 0 0 1-1.227 2.386l.316.893 4.922 4.925zm-8.011-3.724c-.896-.277-1.925-.592-2.115-.649a.14.14 0 0 1-.096-.156 4.908 4.908 0 0 1 1.377-2.701c.706-.706 1.607-1.17 2.568-1.232a.145.145 0 0 1 .144.104l.486 1.38c.308-.562.584-1.137.824-1.713a.493.493 0 0 1 .184-.219c.769-.505 1.329-1.083 1.685-1.67.269-.442.415-.887.44-1.302.021-.39-.065-.755-.268-1.065a1.8 1.8 0 0 0-.422-.448c-.354.802-.942 1.852-1.705 2.896v-4.787c-2.193-1.015-3.628-3.25-4.36-6.607-.875 6.394-8.728 6.115-10.7 7.282v3.73a17.365 17.365 0 0 1-1.012-1.605 7.633 7.633 0 0 1-.581-1.281l-.01.008c-.172.109-.31.255-.415.44-.114.195-.19.44-.229.729-.091.667-.05 1.388.164 2.026.177.537.482 1.016.933 1.362.161.12.33.227.515.313.19.088.393.161.615.216a.463.463 0 0 1 .323.281c.443 1.11.94 2.107 1.484 2.975.537.854 1.133 1.583 1.784 2.172.698.627 1.386 1.073 2.058 1.354 1.237.521 2.43.487 3.537.078 1.002-.367 1.943-1.044 2.792-1.911zm-5.665-2.22a.307.307 0 0 1 .393.19c.175.334 1.498.363 1.748-.017a.308.308 0 0 1 .568.24c-.446.877-2.527.853-2.896-.02a.308.308 0 0 1 .187-.392zm4.49-5.039-.357.44a.307.307 0 0 1-.432.05.31.31 0 0 1-.05-.435l.248-.308a.309.309 0 0 1 .354-.505c.237.156.633.24 1.052.235.396-.008.797-.097 1.086-.282a.306.306 0 0 1 .425.094.309.309 0 0 1-.096.427l-.03.018.277.305a.307.307 0 0 1-.023.438.304.304 0 0 1-.435-.024l-.428-.469a2.887 2.887 0 0 1-.442.084v.435c0 .169-.141.31-.31.31a.309.309 0 0 1-.31-.31v-.422a3.243 3.243 0 0 1-.529-.081zm-8.113.008-.349.43a.307.307 0 0 1-.435.046.307.307 0 0 1-.047-.432l.237-.294-.005-.008a.31.31 0 1 1 .347-.513c.234.156.614.245 1.028.247a.403.403 0 0 1 .081-.01c.023 0 .047.003.068.008.364-.016.734-.102 1.026-.274a.305.305 0 0 1 .422.115.303.303 0 0 1-.115.422l-.018.01.25.276a.31.31 0 1 1-.458.417l-.412-.45a3.032 3.032 0 0 1-.463.083v.416a.31.31 0 0 1-.62 0v-.409a2.335 2.335 0 0 1-.537-.08zm7.814-2.045a.309.309 0 0 1-.357-.502c.58-.412 1.174-.623 1.784-.628.607-.003 1.216.203 1.823.622a.31.31 0 0 1-.352.508c-.502-.343-.992-.515-1.471-.513-.48 0-.956.175-1.427.513zm-8.686 0a.309.309 0 0 1-.43-.073.31.31 0 0 1 .073-.43c.583-.41 1.175-.622 1.784-.627.61-.003 1.216.203 1.823.622a.31.31 0 0 1 .08.43.31.31 0 0 1-.429.078c-.503-.343-.995-.515-1.471-.513-.477 0-.951.175-1.43.513z" fill="#344054"/>
    <rect x="1.125" y=".5" width="55" height="55" rx="11.5" stroke="#EAECF0"/>
</svg>
