<svg width="57" height="56" viewBox="0 0 57 56" fill="none" xmlns="http://www.w3.org/2000/svg">
    <path fill-rule="evenodd" clip-rule="evenodd" d="M38.022 39.084h-1.428v2.29c0 .43-.17.844-.47 1.149a1.59 1.59 0 0 1-1.13.477h-.94c-.425 0-.832-.172-1.133-.477-.3-.305-.47-.718-.471-1.15v-2.289h-9.692v2.29c-.001.43-.17.843-.47 1.148-.3.305-.706.477-1.13.478h-.941a1.596 1.596 0 0 1-1.131-.478c-.3-.305-.47-.718-.472-1.149v-2.289h-1.22c-.834-.014-1.232-.467-1.296-1.267V19.144c-.465.045-.696.155-.807.401v5.353h-1.017c-.304 0-.596-.124-.811-.343a1.181 1.181 0 0 1-.338-.825v-3.155c.001-.303.118-.594.325-.812.208-.218.49-.345.788-.356.098-.917.487-1.18 1.89-1.25.186-1.6 1.257-2.783 3.215-3.549a42.496 42.496 0 0 1 5.678-.566L26.702 14h2.62l1.672.074c1.647.067 3.287.246 4.91.534 1.957.767 3.023 1.95 3.218 3.54 1.391.07 1.792.34 1.89 1.247.298.011.58.14.788.357.207.218.324.509.325.812v3.166c0 .31-.122.606-.337.825a1.143 1.143 0 0 1-.813.343h-1.013v-5.353c-.114-.24-.345-.348-.81-.39v18.49c0 1.072-.34 1.453-1.13 1.45v-.01zm-20.964-4.696.064-1.585c.036-.283.18-.401.44-.359a30.662 30.662 0 0 1 3.755 2.41c.253.173.153.504-.181.442l-3.53-.263a.631.631 0 0 1-.399-.215.651.651 0 0 1-.157-.43h.008zm21.137 0-.067-1.585c-.036-.283-.18-.401-.437-.359a30.899 30.899 0 0 0-3.758 2.41c-.253.173-.15.504.184.442l3.53-.263a.634.634 0 0 0 .398-.216.654.654 0 0 0 .158-.43h-.008zm-20.319 2.045a.595.595 0 0 1 .579.713.585.585 0 0 1-.802.435.605.605 0 0 1-.19-.974.58.58 0 0 1 .413-.174zm19.28 0a.58.58 0 0 1 .328.1.595.595 0 0 1 .252.613.585.585 0 0 1-.802.435.604.604 0 0 1-.19-.974.58.58 0 0 1 .413-.174zm-11.742 0h4.511a.216.216 0 0 1 .156.066.222.222 0 0 1 .064.158v.767c0 .059-.023.116-.064.158a.218.218 0 0 1-.155.065h-4.507a.216.216 0 0 1-.157-.064.224.224 0 0 1-.066-.16v-.766a.227.227 0 0 1 .066-.16.218.218 0 0 1 .157-.064h-.005zm-.916-20.973h6.257c.1 0 .197.042.269.114.071.073.111.17.112.274v1.012c0 .103-.04.201-.112.274a.38.38 0 0 1-.27.114h-6.256a.378.378 0 0 1-.27-.114.39.39 0 0 1-.111-.274v-1.012c0-.103.04-.201.112-.274a.381.381 0 0 1 .269-.114zm-6.577 3.07h19.325c.122 0 .24.05.327.137a.481.481 0 0 1 .14.33v10.372c0 .26-.208.404-.467.475-6.628 2.046-12.698 1.96-19.325 0-.262-.07-.468-.215-.468-.475V18.997a.479.479 0 0 1 .288-.44.457.457 0 0 1 .18-.036v.009z" fill="#344054"/>
    <rect x=".625" y=".5" width="55" height="55" rx="11.5" stroke="#EAECF0"/>
</svg>
