<svg width="57" height="56" viewBox="0 0 57 56" fill="none" xmlns="http://www.w3.org/2000/svg">
    <path fill-rule="evenodd" clip-rule="evenodd" d="M22.21 12.005h9.88l.456-.003c.45-.005.676-.008.893.082.22.09.38.255.698.583l.312.32c.945.95 1.818 1.85 2.69 2.75.849.876 1.698 1.754 2.61 2.671.166.168.308.303.424.415.295.283.45.432.542.643.1.231.099.48.095 1.003v17.447c0 .41-.17.785-.44 1.056a1.49 1.49 0 0 1-1.056.44h-2.057v2.574a2.01 2.01 0 0 1-.593 1.421l.002.002a2.008 2.008 0 0 1-1.422.59H18.139a2.006 2.006 0 0 1-1.423-.59 2.005 2.005 0 0 1-.591-1.423V17.572c0-.552.226-1.055.591-1.42l.005-.005a2.011 2.011 0 0 1 1.418-.59h2.574v-2.056c0-.411.168-.785.44-1.056a1.49 1.49 0 0 1 1.056-.44zm13.6 27.407h-13.6c-.413 0-.787-.169-1.058-.44l-.01-.011a1.49 1.49 0 0 1-.43-1.045V17.005H18.14a.564.564 0 0 0-.4.164l-.002.003a.561.561 0 0 0-.165.4v24.414c0 .155.064.296.167.4a.564.564 0 0 0 .4.166h17.105a.562.562 0 0 0 .398-.166h.003a.563.563 0 0 0 .165-.4v-2.574zm-9.645-14.6h5.767v4.183l-.001.037V36.23l.002.036h-2.6v-7.25a.526.526 0 0 0-.526-.525h-4.238v-2.082c0-.879.719-1.597 1.596-1.597zm6.82 0h2.175c.878 0 1.596.72 1.596 1.597v2.097h-3.772v-3.694zm3.771 4.747v1.895h-3.772V29.56h3.772zm0 2.948v2.162c0 .877-.72 1.597-1.596 1.597h-2.177l.001-.036v-3.723h3.772zm-8.475 3.759h-2.116a1.602 1.602 0 0 1-1.596-1.597V32.44h3.712v3.826zm-3.712-4.878v-1.846h3.712v1.846h-3.712z" fill="#344054"/>
    <rect x=".625" y=".5" width="55" height="55" rx="11.5" stroke="#EAECF0"/>
</svg>
