<svg width="57" height="56" viewBox="0 0 57 56" fill="none" xmlns="http://www.w3.org/2000/svg">
    <path d="M16.159 19.9h5.854v-1.192a6.71 6.71 0 0 1 13.42 0v1.193h5.9a1.279 1.279 0 0 1 1.182.793c.064.156.097.322.097.49v18.204a4.623 4.623 0 0 1-4.61 4.61H19.485a4.622 4.622 0 0 1-4.609-4.608V21.187a1.278 1.278 0 0 1 .378-.906 1.278 1.278 0 0 1 .903-.377l.003-.003zm7.49 0h10.156v-1.192a5.078 5.078 0 1 0-10.157 0v1.193zm-1.636 3.386v-1.75H16.51v16.146h24.48V21.536h-5.558v1.76a1.688 1.688 0 1 1-1.635-.03v-1.73H23.64v1.748a1.687 1.687 0 1 1-1.636 0l.008.002z" fill="#344054"/>
    <rect x="1.375" y=".5" width="55" height="55" rx="11.5" stroke="#EAECF0"/>
</svg>
