<svg width="57" height="56" viewBox="0 0 57 56" fill="none" xmlns="http://www.w3.org/2000/svg">
    <g clip-path="url(#wko3eeg43a)" fill="#344054">
        <path d="M19.443 12.063a1.007 1.007 0 0 0-.595 1.295l.568 1.533a1.007 1.007 0 1 0 1.89-.7l-.568-1.533a1.008 1.008 0 0 0-1.295-.595zM21.591 22.456c1.075-1.71 3-3.691 6.32-4.324a6.67 6.67 0 0 0-10.384 8.081 8.142 8.142 0 0 1 2.868-1.16c.289-.913.69-1.785 1.197-2.597zM22.234 27.13s.807-7.292 8.501-6.92c7.695.373 7.696 6.92 7.696 6.92s5.864.03 5.771 5.864c0 0-.28 4.345-5.027 4.903H22.082s-2.951.248-4.844-2.483c-1.893-2.73-.62-8.191 4.996-8.284zM25.652 42.69a1.31 1.31 0 1 0 0-2.619 1.31 1.31 0 0 0 0 2.62zM31.62 42.69a1.31 1.31 0 1 1-2.62 0 1.31 1.31 0 0 1 2.62 0zM35.038 42.69a1.31 1.31 0 1 0 0-2.619 1.31 1.31 0 0 0 0 2.62zM12.438 26.777a1.007 1.007 0 0 1 .595-1.296l1.533-.568a1.007 1.007 0 1 1 .7 1.89l-1.533.569a1.008 1.008 0 0 1-1.295-.595zM13.122 17.867v.001a1.007 1.007 0 0 0 .368 1.376l1.416.818a1.007 1.007 0 1 0 1.008-1.746l-1.416-.817a1.008 1.008 0 0 0-1.376.368zM28.369 12.732c.493.26.682.869.422 1.36l-.762 1.448c-.26.492-.868.68-1.36.421h-.001a1.007 1.007 0 0 1-.422-1.36l.762-1.448c.26-.492.869-.68 1.36-.421z"/>
    </g>
    <rect x=".875" y=".5" width="55" height="55" rx="11.5" stroke="#EAECF0"/>
    <defs>
        <clipPath id="wko3eeg43a">
            <path fill="#fff" transform="translate(12.375 12)" d="M0 0h32v32H0z"/>
        </clipPath>
    </defs>
</svg>
