<svg width="57" height="56" viewBox="0 0 57 56" fill="none" xmlns="http://www.w3.org/2000/svg">
    <g clip-path="url(#kwxiq4ey0a)">
        <g clip-path="url(#mk2bbyqi9b)">
            <path fill-rule="evenodd" clip-rule="evenodd" d="M15.906 22.44h25.2v11.388h-25.2V22.44zm2.487 8.393V25.16h2.943c.543 0 .931.107 1.164.32a1.18 1.18 0 0 1 .352.925c.019.328-.06.655-.224.94-.138.212-.35.365-.594.43v.054c.73.127 1.097.626 1.099 1.498.018.397-.111.787-.365 1.093a1.406 1.406 0 0 1-1.114.415h-3.26zm2.524-2.252h-.709v.924h.7c.261 0 .381-.153.381-.46 0-.308-.125-.464-.372-.464zm-.136-2.17h-.573v.844h.565c.23 0 .344-.14.344-.421 0-.282-.112-.422-.336-.422zm6.82 4.428h-3.63v-5.68h1.823v4.221h1.823v1.454l-.015.005zm.433-2.834c0-1.041.193-1.796.58-2.263.386-.476 1.087-.713 2.097-.713s1.708.237 2.083.713c.375.477.581 1.23.581 2.263a5.9 5.9 0 0 1-.122 1.303 2.428 2.428 0 0 1-.422.916c-.212.268-.5.467-.826.57a4.026 4.026 0 0 1-1.302.183 4.01 4.01 0 0 1-1.302-.183 1.69 1.69 0 0 1-.825-.57 2.344 2.344 0 0 1-.422-.916 5.747 5.747 0 0 1-.123-1.303h.003zm1.95-.942v2.359h.753c.185.011.37-.018.542-.086.112-.057.166-.19.166-.396v-2.364h-.763a1.23 1.23 0 0 0-.52.086c-.113.057-.167.19-.167.396l-.01.005zm7.146 2.099v-.245h-.46v-1.378h2.187v3.021c-.714.272-1.471.41-2.235.409-1.041 0-1.752-.251-2.132-.753a2.344 2.344 0 0 1-.417-.916 6.125 6.125 0 0 1-.117-1.302 5.735 5.735 0 0 1 .122-1.303c.074-.333.225-.645.44-.911.4-.509 1.17-.763 2.313-.763.308.005.616.03.922.073.28.03.559.084.83.164l-.273 1.388a8.007 8.007 0 0 0-1.328-.128 2.683 2.683 0 0 0-.836.091.354.354 0 0 0-.24.365v2.57h.6c.161.01.323-.014.476-.067.099-.047.148-.151.148-.315zM14.792 15.56h27.666a2.172 2.172 0 0 1 2.167 2.167v20.539a2.175 2.175 0 0 1-2.167 2.166H14.792a2.172 2.172 0 0 1-2.167-2.166v-20.54a2.172 2.172 0 0 1 2.167-2.166zm28.562 5.234H14.003v17.683a.596.596 0 0 0 .599.599h28.125a.597.597 0 0 0 .599-.6V20.795h.028zm-2.958-3.354a1.07 1.07 0 1 1 0 2.141 1.07 1.07 0 0 1 0-2.14zm-7.25 0a1.07 1.07 0 1 1 0 2.141 1.07 1.07 0 0 1 0-2.14zm3.625 0a1.07 1.07 0 1 1 0 2.141 1.07 1.07 0 0 1 0-2.14zm-6.732 20.188a.914.914 0 0 1 0-1.823h10.326a.914.914 0 0 1 0 1.823H30.039zm-13.508 0a.917.917 0 0 1 0-1.823h9.563a.917.917 0 0 1 0 1.823H16.53z" fill="#344054"/>
        </g>
    </g>
    <rect x="1.125" y=".5" width="55" height="55" rx="11.5" stroke="#EAECF0"/>
    <defs>
        <clipPath id="kwxiq4ey0a">
            <path fill="#fff" transform="translate(12.625 12)" d="M0 0h32v32H0z"/>
        </clipPath>
        <clipPath id="mk2bbyqi9b">
            <path fill="#fff" transform="translate(12.625 15.56)" d="M0 0h32v24.872H0z"/>
        </clipPath>
    </defs>
</svg>
