<svg width="56" height="56" viewBox="0 0 56 56" fill="none" xmlns="http://www.w3.org/2000/svg">
    <g clip-path="url(#0rmy145dba)">
        <path fill-rule="evenodd" clip-rule="evenodd" d="M19.857 20c1.594 0 2.885.706 2.885 1.578 0 .873-1.291 1.578-2.885 1.578-1.594 0-2.886-.705-2.886-1.578 0-.872 1.292-1.578 2.886-1.578zm-6.604 14.43a.606.606 0 1 1 0-1.214H27.88a.606.606 0 1 1 0 1.214H13.253zM27.15 20c1.594 0 2.886.706 2.886 1.578 0 .873-1.292 1.578-2.886 1.578s-2.885-.705-2.885-1.578c0-.872 1.291-1.578 2.885-1.578zm-.96 2.432a.202.202 0 1 1 .09-.393c.315.076.711.096 1.094.073.383-.023.747-.091 1.003-.198a.2.2 0 0 1 .263.107.2.2 0 0 1-.107.263c-.297.125-.711.206-1.136.229a4.22 4.22 0 0 1-1.208-.08zm13.218.164a4.304 4.304 0 1 1 0 8.609 4.304 4.304 0 0 1 0-8.609zm-7.14 4.758c-.108-.664-.295-1.208-.657-1.56-.36-.349-.932-.547-1.839-.547H15.75c-1.221 0-2 .654-2.336 1.493-.135.333-.2.7-.2 1.07 0 .37.067.737.2 1.07.336.839 1.115 1.492 2.336 1.492h13.482c.724 0 1.265.355 1.692.888.368.456.639 1.034.873 1.612 1.128 2.771 2.153 2.727 4.45 2.623a41.73 41.73 0 0 1 1.904-.055h4.023c.308-.044.485-.255.563-.518.047-.167.063-.357.05-.552a2.06 2.06 0 0 0-.123-.586c-.12-.32-.294-.565-.469-.565h-.005v.002h-5.482v-.002c-1.247.002-2.182-.675-2.875-1.638-.89-1.245-1.364-2.98-1.565-4.227zm.187-2.427c.58.565.86 1.33 1.008 2.24.18 1.112.59 2.645 1.354 3.705.479.667 1.101 1.136 1.893 1.136v-.003h5.482v.003c.745-.005 1.317.583 1.604 1.351.11.295.177.615.198.933.02.325-.008.656-.1.963-.205.714-.705 1.279-1.588 1.386a.578.578 0 0 1-.117.01h-4.039c-.727 0-1.32.026-1.852.05-2.885.13-4.174.187-5.625-3.376-.197-.49-.421-.97-.692-1.307-.209-.26-.453-.432-.75-.432H15.75c-1.797 0-2.95-.99-3.46-2.255a4.13 4.13 0 0 1 .002-3.044c.508-1.266 1.664-2.256 3.46-2.256h14.021c1.253.003 2.097.326 2.683.896zm-13.39-2.46a.202.202 0 1 1 .067-.4 4.428 4.428 0 0 0 1.482-.02c.109-.021.216.052.237.161a.204.204 0 0 1-.162.237c-.255.05-.542.076-.825.081a4.317 4.317 0 0 1-.8-.06z" fill="#344054"/>
    </g>
    <rect x=".5" y=".5" width="55" height="55" rx="11.5" stroke="#EAECF0"/>
    <defs>
        <clipPath id="0rmy145dba">
            <path fill="#fff" transform="translate(12 12)" d="M0 0h32v32H0z"/>
        </clipPath>
    </defs>
</svg>
