<svg width="32" height="32" viewBox="0 0 32 32" fill="none" xmlns="http://www.w3.org/2000/svg">
    <g clip-path="url(#x6lkglsp7a)" fill="#0E7090">
        <path fill-rule="evenodd" clip-rule="evenodd" d="M21 7.5a4.5 4.5 0 0 0-4.5 4.5c0 1.263.573 2.37 1.354 3.383.652.847 1.487 1.675 2.32 2.502.158.156.316.312.472.469a.5.5 0 0 0 .708 0l.47-.469h.001c.834-.827 1.669-1.655 2.321-2.502.78-1.013 1.354-2.12 1.354-3.383A4.5 4.5 0 0 0 21 7.5zm-1.645 4.389c0-.903.75-1.611 1.643-1.611.894 0 1.643.708 1.643 1.61 0 .904-.749 1.612-1.643 1.612s-1.643-.708-1.643-1.611z"/>
        <path d="M9.81 11.96c.938-.111.706-1.286.473-1.86l-.038-.07c-.133-1.023.586-2.883 1.135-2.418.281.238 1.004.507 1.658.75.623.231 1.182.44 1.238.575.029.072.042.183.058.322.047.404.122 1.044.699 1.632l.059.06c-.06.34-.092.691-.092 1.05 0 1.738.794 3.166 1.665 4.298.714.927 1.609 1.813 2.416 2.613l.038.038.467.464a2 2 0 0 0 2.828 0l.467-.464.038-.038c.807-.8 1.702-1.686 2.416-2.613C26.206 15.167 27 13.739 27 12c0-.353-.03-.7-.089-1.036a.936.936 0 0 1 .196.252c.284.489.492.605.87.396.379-.21.776 0 .814.325.028.24-.261 1.032-.469 1.601-.075.205-.14.382-.174.492l-.084.271c-.065.21-.097.314-.181.52a.393.393 0 0 1-.123.174c-.056.048-.08.069-.01.314.114.396.398.489.53.256.133-.232.568-.256.833 0s.738.372.795 0c.057-.372.17-.604.7-.256.311.205.46.45.609.697.105.174.211.35.375.513.398.395.72 1.558-.113 1.116-.506-.268-.99.012-1.416.258-.275.16-.526.304-.742.277-.421-.054-.519.126-.824.685-.093.17-.204.374-.35.617-.338.567-.67.43-.932.324-.22-.09-.39-.16-.468.234-.17.86-1.305.954-1.552.86-.053-.02-.128-.08-.216-.153-.315-.26-.806-.664-1.146.154-.221.532-.012 1.034.143 1.405.15.359.248.595-.143.618-.365.021-.685.473-1.017.94-.392.552-.799 1.125-1.31 1.037-.947-.163-2.234.256-3.389.837-1.154.581-3.406.14-3.803-.465-.242-.367-1.097-.4-1.782-.426-.444-.017-.817-.032-.906-.132-.227-.256-2.025-.419-2.744-.256-.69.156-.735-.309-.821-1.188l-.012-.114c-.054-.547-.283-.72-.596-.955a3.168 3.168 0 0 1-.804-.813c-.41-.603-1.413-.75-2.257-.872-.555-.082-1.041-.152-1.244-.337-.312-.284-.208-.732-.071-1.323.087-.379.188-.815.203-1.305.033-1.085-1.318-1.927-1.919-2.3-.094-.06-.17-.107-.22-.142-.359-.256-1.362-1.767-1.097-1.814.127-.022.18-.2.23-.37.055-.181.106-.353.243-.304.182.064.374-.004.617-.09.11-.04.231-.083.367-.12.224-.06.417-.309.616-.566.19-.244.384-.494.614-.596.15-.067.377-.248.631-.451.546-.437 1.217-.974 1.527-.689.23.212.59.245.907.274.31.03.58.054.645.238.132.372.738 1.256 1.343 1 .284-.12.489-.02.747.105.293.142.654.318 1.278.244z"/>
    </g>
    <defs>
        <clipPath id="x6lkglsp7a">
            <path fill="#fff" d="M0 0h32v32H0z"/>
        </clipPath>
    </defs>
</svg>
