<svg width="56" height="56" viewBox="0 0 56 56" fill="none" xmlns="http://www.w3.org/2000/svg">
    <path fill-rule="evenodd" clip-rule="evenodd" d="M25.297 12h5.941c.555 0 1.01.454 1.01 1.01v11.476h-7.96V13.01c0-.555.454-1.009 1.009-1.009zM34.7 33.26a.332.332 0 0 1-.663.054 6.87 6.87 0 0 0-.279-1.493 4.16 4.16 0 0 0-.614-1.234c-.348-.47-.874-.855-1.5-1.162-.723-.353-1.575-.598-2.44-.74a.331.331 0 0 1 .107-.655c.922.152 1.838.416 2.624.8.717.352 1.327.803 1.742 1.362.317.427.55.909.715 1.429.162.512.26 1.064.308 1.639zm-9.185-6.216c-.858.143-1.704.387-2.422.738-.625.306-1.152.692-1.5 1.161-1.46 1.965-.881 5.45-.407 8.312.125.753.243 1.465.315 2.092.058.494.106.973.142 1.427.036.449.06.887.066 1.31v.004h.002v.206a1.04 1.04 0 0 0 1.041 1.04h10.971a1.04 1.04 0 0 0 1.041-1.04v-.201l.002-.036c.008-.413.031-.842.066-1.28a39.7 39.7 0 0 1 .142-1.43c.073-.627.19-1.339.316-2.092.474-2.861 1.052-6.347-.407-8.312-.349-.469-.875-.855-1.501-1.161-.718-.351-1.563-.596-2.422-.738a42.709 42.709 0 0 0-5.445 0zm-2.713.143A9.251 9.251 0 0 1 25 26.465h-.712v-1.618h7.96v1.618h-.77a9.254 9.254 0 0 1 2.196.722c.717.351 1.327.803 1.742 1.361 1.627 2.191 1.024 5.828.529 8.813a44.343 44.343 0 0 0-.31 2.061c-.056.483-.104.954-.14 1.406a21.192 21.192 0 0 0-.065 1.264v.202c0 .469-.192.895-.502 1.205a1.7 1.7 0 0 1-1.204.501h-10.97a1.7 1.7 0 0 1-1.205-.5 1.701 1.701 0 0 1-.502-1.206v-.206h.001c-.007-.383-.03-.808-.066-1.262a38.86 38.86 0 0 0-.14-1.404c-.072-.628-.188-1.324-.31-2.06-.495-2.986-1.097-6.623.53-8.814.414-.558 1.025-1.01 1.741-1.36z" fill="#344054"/>
    <rect x=".5" y=".5" width="55" height="55" rx="11.5" stroke="#EAECF0"/>
</svg>
