<svg width="57" height="56" viewBox="0 0 57 56" fill="none" xmlns="http://www.w3.org/2000/svg">
    <g clip-path="url(#9smo24nw4a)">
        <path fill-rule="evenodd" clip-rule="evenodd" d="M13.576 29.107c.037-.224.112-.42.23-.583 1.344-.935 4.477-1.29 7.275-1.143v7.699c0 .512.165.989.444 1.38h-8.133c-.659-.185-.983-.556-.961-1.164l1.145-6.19zm22.215-4.873h2.142c.666 0 1.21.545 1.21 1.211v.647h-.771v-.65a.426.426 0 0 0-.424-.424h-2.172a.43.43 0 0 0-.087.009v-.789a1.34 1.34 0 0 1 .102-.004zm-.101 2.087h5.623V36.46h-6.067c.279-.391.444-.868.444-1.38v-8.76zm6.263 0h1.4a1.08 1.08 0 0 1 1.076 1.076v7.987a1.08 1.08 0 0 1-1.076 1.076h-1.4V26.32zM24.495 18h7.839a.165.165 0 0 1 .164.164v1.062a.165.165 0 0 1-.164.164h-1.178v2.668h-.693V19.39H26.44v2.668h-.693V19.39h-1.252a.165.165 0 0 1-.164-.164v-1.062c0-.09.073-.164.164-.164zm.263 18.621v.439a.654.654 0 0 1-.652.652.654.654 0 0 1-.652-.652v-.439a1.546 1.546 0 0 1-1.527-1.541V23.91c0-.848.694-1.54 1.542-1.54h.352c0 .023.003.047.01.072l.387 1.47c.11.419.297.815.58 1.097.257.258.587.418.998.418h1.546v.828c0 .13.107.237.238.237h1.796c.13 0 .237-.106.237-.237v-.828h1.62c.419 0 .76-.164 1.024-.427.282-.282.468-.677.558-1.101l.309-1.452a.289.289 0 0 0 .01-.078h.168c.848 0 1.541.694 1.541 1.542V35.08c0 .843-.685 1.533-1.526 1.541v.439a.655.655 0 0 1-.653.652.654.654 0 0 1-.651-.652v-.439h-7.255zm7.739-13.966h-8.021l.293 1.112c.087.33.227.636.43.84a.82.82 0 0 0 .597.25h5.438c.252 0 .46-.1.62-.26.2-.201.336-.496.404-.817l.239-1.125zm-7.888 6.078a.286.286 0 1 1 0-.572h7.595a.286.286 0 1 1 0 .572h-7.595zm0 5.515a.285.285 0 1 1 0-.571h7.595a.286.286 0 0 1 0 .571h-7.595zm0-2.757a.286.286 0 1 1 0-.572h7.595a.286.286 0 1 1 0 .572h-7.595zm-6.574-7.027h3.046v1.114h-2.95v1.335l-1.105.248v-1.689c0-.555.454-1.008 1.01-1.008z" fill="#344054"/>
    </g>
    <rect x=".93" y=".5" width="55" height="55" rx="11.5" stroke="#EAECF0"/>
    <defs>
        <clipPath id="9smo24nw4a">
            <path fill="#fff" transform="translate(12.43 12)" d="M0 0h32v32H0z"/>
        </clipPath>
    </defs>
</svg>
