<svg width="56" height="56" viewBox="0 0 56 56" fill="none" xmlns="http://www.w3.org/2000/svg">
    <path fill-rule="evenodd" clip-rule="evenodd" d="M14.649 30.172c-2.86-1.453-2.531-3.073.341-2.904l.643 1.206.886-2.755a3.12 3.12 0 0 1-1.235-.76l-.065-.072a3.095 3.095 0 0 1-.846-2.121v-6.66a3.1 3.1 0 0 1 .91-2.195A3.1 3.1 0 0 1 17.478 13h21.045c.85 0 1.627.351 2.19.914.565.561.915 1.34.915 2.192v6.66a3.1 3.1 0 0 1-.913 2.188l-.006.005a3.129 3.129 0 0 1-.383.327l.762 3.06.573-1.078c2.953-.172 3.216 1.544.09 3.026l.51.78c2.054 2.11 1.861 4.22 1.54 9.436v1.713a.97.97 0 0 1-.966.967h-4.122a.97.97 0 0 1-.966-.966v-.777H18.26v.776a.97.97 0 0 1-.967.967h-4.122a.97.97 0 0 1-.966-.966v-2.227c0-.052.005-.102.01-.15-.312-4.004-.752-7.613 2.433-9.675zm8.913-8.38h-1.659l-.618-1.403h-.324v1.402h-1.508V17.08h2.375c1.08 0 1.62.55 1.62 1.65 0 .754-.233 1.252-.7 1.494l.814 1.567zm-2.601-3.506v.942h.347c.18 0 .313-.019.396-.056.083-.038.123-.125.123-.26v-.31c0-.135-.04-.222-.123-.26-.083-.038-.215-.056-.396-.056h-.347zm6.2 1.726h-1.507v.573H27.5v1.206h-3.355V17.08h3.317l-.188 1.206h-1.621v.633h1.507v1.093zm3.803 1.78-1.153-1.675c-.04-.055-.065-.175-.075-.36h-.03v2.034h-1.508V17.08h1.417l1.153 1.673c.04.056.066.176.076.362h.03V17.08h1.508v4.711h-1.418zm5.584-3.506h-1.094v3.505h-1.508v-3.505h-1.093V17.08h3.694v1.206zM17.477 14.1h21.044c1.104 0 2.005.906 2.005 2.006v6.66c0 1.099-.906 2.005-2.005 2.005H17.478a2.014 2.014 0 0 1-2.006-2.005v-6.66a2.01 2.01 0 0 1 2.005-2.006zM38.77 25.86a2.73 2.73 0 0 1-.25.011H18.063l-1.054 3.512h22.61l-.847-3.522zM19.91 34.92l-3.66-.462c-.865-.096-1.097.27-.803 1.014l.396.96c.127.248.297.428.495.553.232.143.51.213.82.226l3.266.026c.789-.002 1.13-.317.883-1.041-.203-.68-.667-1.107-1.396-1.276zm16.178 0 3.662-.462c.865-.096 1.096.27.802 1.014l-.396.96a1.386 1.386 0 0 1-.495.553c-.231.143-.51.213-.82.226l-3.265.026c-.79-.002-1.13-.317-.883-1.041.203-.68.667-1.107 1.395-1.276z" fill="#344054"/>
    <rect x=".5" y=".5" width="55" height="55" rx="11.5" stroke="#EAECF0"/>
</svg>
