<svg width="56" height="56" viewBox="0 0 56 56" fill="none" xmlns="http://www.w3.org/2000/svg">
    <path fill-rule="evenodd" clip-rule="evenodd" d="M24.89 12.87c2.005-1.352 4.266-1.052 6.14.378.502.383.925.859 1.248 1.4.284.48.781 1.456-.148 1.607-.368.058-1.008-.44-1.503-.601a9.902 9.902 0 0 0-1.935-.406 9.474 9.474 0 0 0-3.42.26c-.55.15-1.088.343-1.609.578-.24.112-.734.438-.867.018-.312-.979 1.378-2.75 2.094-3.234zm9.693 24.828-.024.047a1.659 1.659 0 0 1 .716 2.177l.05.024a1.66 1.66 0 0 1 2.177-.717l.023-.047A1.667 1.667 0 0 1 36.807 37l-.047-.023a1.656 1.656 0 0 1-2.177.719v.002zm-4.318 4.305v.026a.906.906 0 0 1 .393 1.19l.026.013a.906.906 0 0 1 1.19-.393v-.026a.906.906 0 0 1-.393-1.19h-.026a.906.906 0 0 1-1.19.393v-.013zm-8.349-.659.029.057a1.98 1.98 0 0 0-.922 2.573l-.058.026a1.848 1.848 0 0 0-1.101-.976 1.851 1.851 0 0 0-1.469.057l-.028-.057a1.854 1.854 0 0 0 .976-1.102 1.858 1.858 0 0 0-.055-1.471l.058-.026a1.837 1.837 0 0 0 1.101.974 1.84 1.84 0 0 0 1.47-.055zm-1.578-4.386.02.047a1.66 1.66 0 0 0-.78 2.16l-.047.023a1.563 1.563 0 0 0-.927-.82 1.564 1.564 0 0 0-1.232.046l-.024-.047a1.563 1.563 0 0 0 .829-.924 1.54 1.54 0 0 0-.047-1.224l.05-.023a1.562 1.562 0 0 0 .924.804 1.561 1.561 0 0 0 1.234-.047v.005zm4.213 4.412.014.026a.863.863 0 0 0-.448.505.85.85 0 0 0 .026.675h-.026a.863.863 0 0 0-.506-.448.854.854 0 0 0-.674.026l-.013-.026a.906.906 0 0 0 .422-1.18h.026a.906.906 0 0 0 1.18.422zm1.85-5.385c.059-.02.122-.02.182 0a.308.308 0 0 1 .208.192c.17.331 1.48.357 1.724-.015a.305.305 0 0 1 .56.237c-.44.864-2.495.843-2.865-.019a.305.305 0 0 1 .185-.388l.005-.007zm4.434-4.974-.351.434a.303.303 0 0 1-.427.05.307.307 0 0 1-.037-.435l.235-.31a.304.304 0 0 1 .237-.545c.04.009.076.025.109.048.32.17.68.25 1.042.229.375.005.746-.09 1.072-.276a.301.301 0 0 1 .42.091.304.304 0 0 1-.094.422l-.029.018.274.302a.304.304 0 1 1-.453.41l-.42-.464c-.143.037-.29.065-.437.083v.427a.306.306 0 0 1-.43.31.308.308 0 0 1-.182-.31v-.417a2.876 2.876 0 0 1-.52-.08l-.009.013zm-8.013 0-.354.427a.304.304 0 0 1-.506-.044.304.304 0 0 1 .03-.336l.234-.292a.31.31 0 0 1 .338-.521c.313.175.667.26 1.024.245a.39.39 0 0 1 .08 0h.066a2.178 2.178 0 0 0 1.015-.26.308.308 0 0 1 .305.52h-.018l.247.26a.307.307 0 0 1-.453.412l-.403-.411a3.75 3.75 0 0 1-.459.083v.411a.307.307 0 0 1-.612 0v-.414a2.18 2.18 0 0 1-.534-.078v-.002zm7.72-2.016a.307.307 0 0 1-.428-.068.303.303 0 0 1 .073-.422 3.05 3.05 0 0 1 1.76-.62c.65.014 1.278.228 1.8.615a.304.304 0 0 1-.341.498 2.513 2.513 0 0 0-1.45-.506 2.38 2.38 0 0 0-1.415.503zm-8.577 0a.307.307 0 0 1-.427-.068.303.303 0 0 1 .073-.422 3.054 3.054 0 0 1 1.76-.62c.65.014 1.279.228 1.8.615a.304.304 0 1 1-.343.503 2.524 2.524 0 0 0-1.451-.505 2.406 2.406 0 0 0-1.414.502l.002-.005zm-3.854-1.51a.455.455 0 0 1 .279-.07 11.77 11.77 0 0 1-.107-2.683c.094-2.555.74-4.596 2.755-6.367 3.034-2.672 9.05-2.906 12.396-.604.506.349.967.759 1.373 1.221 1.356 1.563 2.567 4.977 2.541 7.086a4.947 4.947 0 0 1-.26 1.49c0 .049-.018.104-.034.164.346.213.641.498.867.835.317.475.469 1.04.433 1.61a3.766 3.766 0 0 1-.566 1.713 6.21 6.21 0 0 1-1.838 1.87 17.166 17.166 0 0 1-2.925 4.688 9.003 9.003 0 0 1-3.46 2.492 5.518 5.518 0 0 1-4.167-.094 8.125 8.125 0 0 1-2.292-1.5A11.22 11.22 0 0 1 21.166 37a18.8 18.8 0 0 1-1.456-2.864 3.818 3.818 0 0 1-.55-.211 3.461 3.461 0 0 1-.679-.41 3.693 3.693 0 0 1-1.221-1.801 5.467 5.467 0 0 1-.209-2.414c.044-.372.158-.731.336-1.06.177-.307.425-.566.724-.755zm.503.78c-.17.109-.312.258-.409.436a1.944 1.944 0 0 0-.226.721 4.495 4.495 0 0 0 .161 2.003c.163.53.484.999.92 1.343.162.12.337.223.52.308.195.09.398.162.607.213a.463.463 0 0 1 .32.276c.392 1.02.874 2.003 1.44 2.938.488.791 1.08 1.513 1.76 2.146a7.291 7.291 0 0 0 2.032 1.336 4.62 4.62 0 0 0 3.492.078 8.037 8.037 0 0 0 3.094-2.248 16.143 16.143 0 0 0 2.815-4.544.482.482 0 0 1 .182-.216c.67-.42 1.24-.983 1.667-1.648.246-.388.395-.83.435-1.287a1.714 1.714 0 0 0-.26-1.042 1.822 1.822 0 0 0-.42-.445c-2.304 5.237-1.685.909-1.685-1.862-2.174-1.013-3.588-3.221-4.31-6.536-.862 6.312-8.614 6.039-10.562 7.19 0 2.018.659 5.067-.998 2.099a7.781 7.781 0 0 1-.575-1.266v.008z" fill="#344054"/>
    <rect x=".5" y=".5" width="55" height="55" rx="11.5" stroke="#EAECF0"/>
</svg>
