<svg width="56" height="56" viewBox="0 0 56 56" fill="none" xmlns="http://www.w3.org/2000/svg">
    <path fill-rule="evenodd" clip-rule="evenodd" d="M14.65 28.368c-2.863-1.452-2.53-3.071.341-2.902l.657 1.205 1.301-4.12c.432-1.349 1.106-2.603 2.298-2.973V15.45a1.455 1.455 0 0 1 1.46-1.45h14.577a1.453 1.453 0 0 1 1.447 1.45v4.016h.26c1.7 0 2.679 1.442 3.09 3.09l.995 3.995.572-1.077c2.952-.172 3.215 1.543.091 3.024l.52.781c2.055 2.111 1.862 4.22 1.542 9.433v1.713a.968.968 0 0 1-.966.966h-4.133a.969.969 0 0 1-.966-.966v-.78H18.25v.78a.968.968 0 0 1-.965.966h-4.11a.969.969 0 0 1-.966-.966v-2.236c-.003-.05-.003-.1 0-.15-.302-3.996-.742-7.61 2.442-9.67zm7.653-8.902h1.302v-2.928h.952v-1.041h-3.206v1.04h.952v2.93zm2.273 0h1.382l.12-.52h1.082l.12.52h1.382l-1.041-3.97h-2.03l-1.015 3.97zm4.346 0h1.39l.432-1.041h.06l.438 1.041h1.455l-.854-1.986.914-1.983h-1.43l-.452 1.088h-.065l-.453-1.096h-1.492l.893 2.022-.835 1.955zm4.405 0h1.301V15.49h-1.301v3.977zm2.01 1.622H20.608c-1.302 0-1.958 1.122-2.343 2.355l-1.257 4.136h22.599l-.997-4.143c-.26-1.263-1.06-2.343-2.343-2.343l-.932-.005zm-8.757-4.34-.26 1.156h.598l-.26-1.15-.078-.005zM19.91 33.114l-3.66-.46c-.864-.097-1.096.26-.801 1.012l.395.96c.112.226.283.417.495.553.25.144.532.222.82.226l3.264.026c.78 0 1.13-.318.882-1.041a1.765 1.765 0 0 0-1.395-1.276zm16.17 0 3.66-.46c.863-.097 1.095.26.801 1.012l-.396.96a1.388 1.388 0 0 1-.494.553c-.25.144-.532.222-.82.226l-3.264.026c-.781 0-1.13-.318-.883-1.041a1.765 1.765 0 0 1 1.395-1.276z" fill="#344054"/>
    <rect x=".5" y=".5" width="55" height="55" rx="11.5" stroke="#EAECF0"/>
</svg>
