<svg width="33" height="32" viewBox="0 0 33 32" fill="none" xmlns="http://www.w3.org/2000/svg">
    <g clip-path="url(#niq351lsea)">
        <path d="M23.514 19.901a12.7 12.7 0 0 1-1.234 2.89h2.574a2 2 0 0 0 .351.168 1.822 1.822 0 0 0 1.739-.26l.708-.481c-.314.694-.684 1.36-1.106 1.993a13.054 13.054 0 0 1-3.54 3.537c-.706.475-1.456.882-2.238 1.216-.802.344-1.636.606-2.491.78a13.629 13.629 0 0 1-5.276 0c-.84-.169-1.66-.423-2.449-.757l-.041-.015a13.643 13.643 0 0 1-2.239-1.216 12.965 12.965 0 0 1-2.683-2.405c.376-.323.77-.623 1.181-.9.197.227.4.446.61.656.523.526 1.098 1 1.715 1.413.632.422 1.302.784 2.001 1.083l.034.015a11.164 11.164 0 0 0 2.725.76 23.487 23.487 0 0 1-4.164-4.487H7.609c.78-.494 1.65-.976 2.511-1.429.065.112.133.222.203.33h4.753v-2.664l.364-.154c.172.331.446.598.78.763v2.053h4.73c1.13-1.772 1.739-3.558 1.822-5.353l.75 2.464h-.008zm-9.649-4.242c.177-.565.67-1.018 1.382-1.476l-2.436-2.847c-.164-.143-.122-.26.031-.362l.81-.346a.474.474 0 0 1 .393.05l3.537 1.782 4.164-2.407-5.757-7.158c-.148-.164-.127-.291.104-.374L17.395 2l8.651 5.593 3.123-1.517c1.19-.52 2.215-.604 2.863-.216a.754.754 0 0 1 .464.78c.012.781-.64 1.625-1.794 2.343l-3.245 1.265-.26 10.288-1.161.781c-.2.143-.318.091-.37-.125L22.98 12.42 18.65 14.5l-.521 3.904a.48.48 0 0 1-.19.359l-.737.474c-.17.067-.289.036-.312-.18l-.979-3.618c-.78.333-1.437.484-2.004.307-.052-.015-.057-.039-.042-.088zm-1.093-1.804c-3.44 1.822-8.042 4.781-9.734 6.507-5.533 5.697-1.215 10.138 5.25 8.193-2.025-.299-3.61-.708-4.49-1.285-3.756-2.468 8.329-7.793 11.155-8.959l-.22-.82a3.43 3.43 0 0 1-1.32-.138l-.16-.07a1.576 1.576 0 0 1-.923-.914l-.034-.09a1.583 1.583 0 0 1-.018-1.11 3.41 3.41 0 0 1 .627-1.163l-.127-.15h-.006zm-10.19 4.578a13.874 13.874 0 0 1 .172-4.229c.168-.84.42-1.66.755-2.45l.016-.038c.336-.783.744-1.533 1.218-2.241A12.964 12.964 0 0 1 8.28 5.938a13.642 13.642 0 0 1 2.238-1.216 12.885 12.885 0 0 1 2.491-.78 13.4 13.4 0 0 1 1.528-.214c.058.091.122.178.192.26l1.49 1.856V9.78h2.66l-1.352.781-2.451-1.233v-3.49a27.105 27.105 0 0 0-3.759 3.942h.347a1.783 1.783 0 0 0-.565.911 1.41 1.41 0 0 0-.044.209v.023h-.54a13.462 13.462 0 0 0-1.493 3.058c-.471.284-.945.573-1.413.87a13.188 13.188 0 0 1 1.561-3.938H5.586c-.26.447-.491.909-.695 1.384l-.015.034a10.96 10.96 0 0 0-.664 2.17 11.652 11.652 0 0 0-.213 1.776h1.447c-.992.669-1.948 1.39-2.863 2.16v-.003zm20.174-1.015h-2.813l.153-1.145h2.317l.346 1.145h-.003zm-1.174 6.47a23.643 23.643 0 0 1-4.164 4.49 11.314 11.314 0 0 0 2.756-.778c.7-.298 1.37-.66 2.002-1.083a11.288 11.288 0 0 0 1.715-1.413c.387-.378.747-.785 1.075-1.215h-3.384zm-5.366 4.017a24.416 24.416 0 0 0 3.966-4.016h-3.966v4.016zm-1.14-4.016h-3.97a24.527 24.527 0 0 0 3.97 4.016v-4.016zM9.912 9.779a26.177 26.177 0 0 1 4.05-4.479 10.932 10.932 0 0 0-2.858.791c-.7.299-1.37.662-2.002 1.083a11.28 11.28 0 0 0-1.715 1.413c-.374.372-.722.77-1.04 1.19l3.565.002z" fill="#344054"/>
    </g>
    <defs>
        <clipPath id="niq351lsea">
            <path fill="#fff" transform="translate(.5)" d="M0 0h32v32H0z"/>
        </clipPath>
    </defs>
</svg>
