<svg width="57" height="56" viewBox="0 0 57 56" fill="none" xmlns="http://www.w3.org/2000/svg">
    <path fill-rule="evenodd" clip-rule="evenodd" d="M28.823 31.047a.423.423 0 0 1-.484.016 16.993 16.993 0 0 1-4.203-3.75 13.356 13.356 0 0 1-2.829-6.102c-.336-2.08-.015-4.08 1.026-5.708a7.035 7.035 0 0 1 1.563-1.735A7.613 7.613 0 0 1 28.677 12a6.77 6.77 0 0 1 4.547 1.854 6.77 6.77 0 0 1 1.214 1.48c1.112 1.822 1.351 4.166.862 6.541a14.4 14.4 0 0 1-6.477 9.172zm-4.948.193v7.245l7.852 3.385v-9.33a16.962 16.962 0 0 0 1.68-1.467v10.724l6.51-3.278V23.935l-2.503.964c.252-.664.459-1.343.62-2.034l2.422-.935a.839.839 0 0 1 1.128.789v16.328a.841.841 0 0 1-.521.781l-8.125 4.081a.841.841 0 0 1-.76 0l-9.115-3.95-7.844 3.95A.84.84 0 0 1 14 43.162V25.865a.841.841 0 0 1 .604-.808l4.266-1.645c.158.536.346 1.064.562 1.58l-3.75 1.446v15.364l6.51-3.278V29.47a19.858 19.858 0 0 0 1.683 1.769zm4.487-15.54a3.573 3.573 0 1 1 0 7.146 3.573 3.573 0 0 1 0-7.145z" fill="#344054"/>
    <rect x=".645" y=".5" width="55" height="55" rx="11.5" stroke="#EAECF0"/>
</svg>
