<svg width="57" height="56" viewBox="0 0 57 56" fill="none" xmlns="http://www.w3.org/2000/svg">
    <g clip-path="url(#lw1kwq86ga)">
        <path fill-rule="evenodd" clip-rule="evenodd" d="M22.654 22.413c-.302.01-.529.073-.685.18a.545.545 0 0 0-.195.226.83.83 0 0 0-.065.365c.013.414.229.953.646 1.575l.005.008 1.36 2.162c.544.867 1.114 1.75 1.825 2.398.682.625 1.51 1.047 2.604 1.05 1.185.003 2.052-.435 2.758-1.094.732-.685 1.31-1.625 1.878-2.563l1.531-2.52c.287-.652.388-1.087.323-1.342-.039-.15-.206-.226-.492-.242-.06-.003-.122-.003-.188-.003-.067.003-.14.006-.213.014a.43.43 0 0 1-.117-.008 2.088 2.088 0 0 1-.42-.024l.524-2.32c-3.888.612-6.797-2.276-10.91-.578l.297 2.734c-.164.008-.32.003-.466-.018zm9.248 9.253c-.24-.323-.477-.672-.693-.99-.099-.145-.195-.284-.284-.411-.742.544-1.633.883-2.773.88-1.227-.002-2.172-.44-2.953-1.101l-.016.023c-.128.177-.27.385-.425.61-.27.398-.575.846-.877 1.229l-.417-.464c.266-.349.542-.75.787-1.112.158-.234.307-.453.432-.625a.285.285 0 0 1 .075-.073c-.659-.674-1.187-1.492-1.69-2.297l-1.36-2.159c-.497-.74-.755-1.42-.77-1.974-.008-.26.036-.5.133-.706.101-.218.258-.4.466-.541.099-.065.208-.123.328-.167a34.88 34.88 0 0 1-.065-3.883c.029-.294.086-.586.167-.88.346-1.24 1.218-2.24 2.294-2.925.38-.242.797-.443 1.234-.602.782-.284.401-1.479 1.269-1.497 2.029-.047 5.354 1.67 6.651 3.073.755.815 1.227 1.899 1.33 3.33l-.085 3.527c.378.115.617.354.716.74.11.427-.01 1.031-.372 1.857-.008.015-.013.028-.024.044l-1.547 2.55c-.596.981-1.203 1.968-2.01 2.724l-.034.03.315.46c.175.257.365.536.557.799l-.359.531zm-7.133 1.23c1.33.718 3.862 1.231 6.203.116l-2.648 3.844-3.555-3.96zm8.39-1.113c1.972.969 5.595 1.292 7.072 2.115a4.51 4.51 0 0 1 1.427 1.208c.982 1.297 1.067 5.764 1.422 7.355-.086.927-.612 1.46-1.646 1.539H30.23l1.698-1.076c.602-.38.617-.69.24-1.263l-2.709-4.13c.029-.036.058-.073.086-.112l3.615-5.636zm-5.018 12.214H14.646c-1.034-.078-1.56-.612-1.646-1.539.357-1.591.44-6.057 1.422-7.354.393-.521.883-.907 1.427-1.209 1.334-.745 4.414-1.078 6.454-1.849l4.8 5.373c.036.057.075.11.111.161l-1.729 1.102c-.292.208-.378.513-.203.932l2.86 4.383zm-.453-5.922c.414.305.831.276 1.245-.023.057-.016.115-.034.175-.055a.817.817 0 1 1-1.61 0c.06.031.125.057.19.078z" fill="#344054"/>
    </g>
    <rect x=".789" y=".5" width="55" height="55" rx="11.5" stroke="#EAECF0"/>
    <defs>
        <clipPath id="lw1kwq86ga">
            <path fill="#fff" transform="translate(12.29 12)" d="M0 0h32v32H0z"/>
        </clipPath>
    </defs>
</svg>
