<svg width="57" height="56" viewBox="0 0 57 56" fill="none" xmlns="http://www.w3.org/2000/svg">
    <g clip-path="url(#5fdop7nsya)">
        <path fill-rule="evenodd" clip-rule="evenodd" d="M15.65 26.44c-2.857-1.452-2.53-3.071.341-2.892l.657 1.195 1.301-4.12c.52-1.622 1.398-3.093 3.097-3.093h.378v-.458a1.072 1.072 0 0 1 2.145 0v.459h10.854v-.459a1.072 1.072 0 0 1 2.145 0v.459h1.424c1.7 0 2.678 1.442 3.09 3.09l.994 3.995.572-1.078c2.952-.172 3.215 1.544.091 3.025l.52.78c2.055 2.112 1.862 4.22 1.542 9.434v1.712a.968.968 0 0 1-.966.966h-4.133a.968.968 0 0 1-.966-.966v-1.145h-13.35c-.058.33-.218.634-.459.867-.308.3-.722.468-1.153.468h-1.371a1.643 1.643 0 0 1-1.153-.468 1.587 1.587 0 0 1-.461-.867H19.25v1.132a.968.968 0 0 1-.965.966h-4.11a.968.968 0 0 1-.966-.955V36.26c-.003-.05-.003-.1 0-.15-.302-4.001-.742-7.617 2.442-9.67zm6.753 9.701h1.371a.951.951 0 0 1 0 1.9h-1.371a.95.95 0 1 1 0-1.9zm-5.467-7.892a.898.898 0 0 1 .896.893v1.955a.898.898 0 0 1-1.24.827.898.898 0 0 1-.559-.827v-1.955a.895.895 0 0 1 .893-.893h.01zm7.028.206h10.079a.492.492 0 0 1 .492.492v2.343a.492.492 0 0 1-.492.492H23.949a.491.491 0 0 1-.492-.492v-2.343a.492.492 0 0 1 .492-.492h.015zM41.071 34.2s2.028 2.517 2.223 2.9h-2.226v-1.922H16.94V37.1h-2.226l2.226-2.897 24.132-.002zm0-5.95a.896.896 0 0 1 .893.892v1.955a.895.895 0 0 1-1.528.633.898.898 0 0 1-.266-.633v-1.955a.898.898 0 0 1 .896-.893h.005zm-23.057-2.604h22.599l-.997-4.143c-.26-1.263-1.06-2.343-2.343-2.343H21.61c-1.302 0-1.958 1.122-2.343 2.356l-1.257 4.136.005-.006z" fill="#344054"/>
    </g>
    <rect x="1.074" y=".5" width="55" height="55" rx="11.5" stroke="#EAECF0"/>
    <defs>
        <clipPath id="5fdop7nsya">
            <path fill="#fff" transform="translate(12.574 12)" d="M0 0h32v32H0z"/>
        </clipPath>
    </defs>
</svg>
