<svg width="20" height="20" viewBox="0 0 20 20" fill="none" xmlns="http://www.w3.org/2000/svg">
    <path d="M4.5 17.5a1.13 1.13 0 0 1-.417-.072l6.712-6.714 2.222 2.224-7.713 4.334a1.665 1.665 0 0 1-.804.228zm-.97-.554a1.583 1.583 0 0 1-.197-.808V3.883a1.775 1.775 0 0 1 .084-.548l6.86 6.863-6.75 6.75.003-.002zm10.15-4.382-2.368-2.366 2.61-2.61 2.32 1.303c.445.2.743.629.773 1.116a1.311 1.311 0 0 1-.774 1.116l-2.562 1.441zm-2.885-2.886L3.845 2.73a1.11 1.11 0 0 1 .66-.217c.28.01.553.089.795.23l7.96 4.474-2.464 2.462h-.001z" fill="#fff"/>
</svg>
